M48
METRIC,LZ,000.000
;FILE_FORMAT=3:3
;TYPE=PLATED
;Layer: PTH_Through
;EasyEDA v6.4.31, 2022-04-13 09:50:49
;15e1e23020854c049c4cbe606706b0dd,9d3d63f08f7d425b882531a970cedf0e,10
;Gerber Generator version 0.2
;Holesize 1 = 0.305 mm
T01C0.305
;Holesize 2 = 0.800 mm
T02C0.800
;Holesize 3 = 0.889 mm
T03C0.889
%
G05
G90
T01
X022733Y107442
X024130Y115189
X027305Y115570
X021717Y114173
X023241Y114173
X022606Y103886
X035941Y111125
X033401Y104267
X034290Y109093
X024003Y105918
X024892Y105918
X024384Y110363
X031623Y111760
X034798Y107315
X031496Y110363
X026035Y110744
X028067Y110744
X028829Y114427
X019558Y115316
X031684Y116601
T02
X020701Y110363
X020701Y107823
X020701Y105283
T03
X024892Y117348
X027432Y117348
X025781Y100965
X028321Y100965
M30
