G04 Layer: TopSolderMaskLayer*
G04 EasyEDA v6.4.31, 2022-04-13 09:50:49*
G04 15e1e23020854c049c4cbe606706b0dd,9d3d63f08f7d425b882531a970cedf0e,10*
G04 Gerber Generator version 0.2*
G04 Scale: 100 percent, Rotated: No, Reflected: No *
G04 Dimensions in millimeters *
G04 leading zeros omitted , absolute positions ,4 integer and 5 decimal *
%FSLAX45Y45*%
%MOMM*%

%ADD32C,0.6756*%
%ADD33C,0.7316*%
%ADD40C,1.6764*%
%ADD41C,1.3416*%

%LPD*%
D32*
X2413000Y10959592D02*
G01*
X2413000Y10813440D01*
X2540000Y10959592D02*
G01*
X2540000Y10813440D01*
X2667000Y10959592D02*
G01*
X2667000Y10813440D01*
X2794000Y10959592D02*
G01*
X2794000Y10813440D01*
X2413000Y11513159D02*
G01*
X2413000Y11367008D01*
X2540000Y11513159D02*
G01*
X2540000Y11367008D01*
X2667000Y11513159D02*
G01*
X2667000Y11367008D01*
X2794000Y11513159D02*
G01*
X2794000Y11367008D01*
D33*
X2959100Y10423400D02*
G01*
X2959100Y10299900D01*
X3086100Y10423400D02*
G01*
X3086100Y10299900D01*
X3213100Y10423400D02*
G01*
X3213100Y10299900D01*
X3340100Y10423400D02*
G01*
X3340100Y10299900D01*
X2959100Y10959899D02*
G01*
X2959100Y10836399D01*
X3086100Y10959899D02*
G01*
X3086100Y10836399D01*
X3213100Y10959899D02*
G01*
X3213100Y10836399D01*
X3340100Y10959899D02*
G01*
X3340100Y10836399D01*
G36*
X3020568Y11680697D02*
G01*
X2899918Y11771629D01*
X2987040Y11887454D01*
X3107943Y11796521D01*
G37*
G36*
X3185159Y11556745D02*
G01*
X3064256Y11647678D01*
X3151631Y11763502D01*
X3272281Y11672570D01*
G37*
G36*
X3422395Y11287505D02*
G01*
X3422395Y11376660D01*
X3486404Y11376660D01*
X3486404Y11287505D01*
G37*
G36*
X3422395Y11178539D02*
G01*
X3422395Y11267694D01*
X3486404Y11267694D01*
X3486404Y11178539D01*
G37*
G36*
X3214115Y11126978D02*
G01*
X3214115Y11204447D01*
X3381756Y11204447D01*
X3381756Y11126978D01*
G37*
G36*
X3214115Y11426952D02*
G01*
X3214115Y11504421D01*
X3381756Y11504421D01*
X3381756Y11426952D01*
G37*
G36*
X2929127Y11216639D02*
G01*
X2924556Y11216894D01*
X2919984Y11217655D01*
X2915158Y11218418D01*
X2910586Y11219179D01*
X2906268Y11220450D01*
X2901695Y11221974D01*
X2897377Y11223497D01*
X2893059Y11225276D01*
X2888741Y11227308D01*
X2880613Y11231879D01*
X2876550Y11234674D01*
X2872993Y11237468D01*
X2869184Y11240262D01*
X2865627Y11243310D01*
X2862325Y11246612D01*
X2856229Y11253724D01*
X2853181Y11257534D01*
X2848102Y11265154D01*
X2845815Y11269218D01*
X2841752Y11277854D01*
X2839974Y11282171D01*
X2838450Y11286489D01*
X2837179Y11291062D01*
X2835147Y11300205D01*
X2834640Y11304778D01*
X2834131Y11309604D01*
X2833877Y11314176D01*
X2833877Y11319002D01*
X2834131Y11323574D01*
X2834640Y11328145D01*
X2835147Y11332971D01*
X2837179Y11342115D01*
X2838450Y11346687D01*
X2839974Y11351005D01*
X2841752Y11355324D01*
X2845815Y11363960D01*
X2848102Y11368024D01*
X2853181Y11375644D01*
X2856229Y11379454D01*
X2862325Y11386565D01*
X2865627Y11389613D01*
X2869184Y11392915D01*
X2872993Y11395710D01*
X2876550Y11398504D01*
X2884677Y11403584D01*
X2888741Y11405870D01*
X2893059Y11407902D01*
X2897377Y11409679D01*
X2901695Y11411204D01*
X2906268Y11412728D01*
X2910586Y11413744D01*
X2915158Y11414760D01*
X2919984Y11415521D01*
X2929127Y11416537D01*
X3123945Y11416537D01*
X3128772Y11416029D01*
X3133343Y11415521D01*
X3137915Y11414760D01*
X3147059Y11412728D01*
X3151631Y11411204D01*
X3155950Y11409679D01*
X3160268Y11407902D01*
X3164586Y11405870D01*
X3168650Y11403584D01*
X3172713Y11401044D01*
X3176524Y11398504D01*
X3180334Y11395710D01*
X3183890Y11392915D01*
X3187445Y11389613D01*
X3190747Y11386565D01*
X3194050Y11383010D01*
X3197097Y11379454D01*
X3202686Y11371834D01*
X3205225Y11368024D01*
X3207511Y11363960D01*
X3209797Y11359134D01*
X3210813Y11354562D01*
X3381502Y11354562D01*
X3381502Y11278615D01*
X3210813Y11278615D01*
X3209797Y11274044D01*
X3207511Y11269218D01*
X3205225Y11265154D01*
X3202686Y11261344D01*
X3197097Y11253724D01*
X3194050Y11250168D01*
X3190747Y11246612D01*
X3187445Y11243310D01*
X3183890Y11240262D01*
X3180334Y11237468D01*
X3172713Y11231879D01*
X3164586Y11227308D01*
X3160268Y11225276D01*
X3155950Y11223497D01*
X3151631Y11221974D01*
X3147059Y11220450D01*
X3142488Y11219179D01*
X3128772Y11216894D01*
X3123945Y11216639D01*
G37*
G36*
X2683509Y10551160D02*
G01*
X2683509Y10734039D01*
X2842006Y10734039D01*
X2842006Y10551160D01*
G37*
G36*
X2364993Y10551160D02*
G01*
X2364993Y10734039D01*
X2523490Y10734039D01*
X2523490Y10551160D01*
G37*
G36*
X2286254Y11574018D02*
G01*
X2197608Y11669268D01*
X2285491Y11751310D01*
X2374138Y11656060D01*
G37*
G36*
X2032508Y11337289D02*
G01*
X1943861Y11432539D01*
X2031745Y11514581D01*
X2120391Y11419331D01*
G37*
G36*
X1887220Y11187176D02*
G01*
X1887220Y11317224D01*
X2007361Y11317224D01*
X2007361Y11187176D01*
G37*
G36*
X2234438Y11187176D02*
G01*
X2234438Y11317224D01*
X2354579Y11317224D01*
X2354579Y11187176D01*
G37*
G36*
X2405379Y11650979D02*
G01*
X2405379Y11818620D01*
X2573020Y11818620D01*
X2573020Y11650979D01*
G37*
D40*
G01*
X2743200Y11734800D03*
G36*
X2494279Y10012679D02*
G01*
X2494279Y10180320D01*
X2661920Y10180320D01*
X2661920Y10012679D01*
G37*
G01*
X2832100Y10096500D03*
D41*
G01*
X2070100Y11036300D03*
G01*
X2070100Y10782300D03*
G01*
X2070100Y10528300D03*
G36*
X2647695Y10285729D02*
G01*
X2647695Y10466070D01*
X2778759Y10466070D01*
X2778759Y10285729D01*
G37*
G36*
X2352040Y10285729D02*
G01*
X2352040Y10466070D01*
X2483104Y10466070D01*
X2483104Y10285729D01*
G37*
M02*
