G04 Layer: TopSilkscreenLayer*
G04 EasyEDA v6.4.31, 2022-04-13 09:50:49*
G04 15e1e23020854c049c4cbe606706b0dd,9d3d63f08f7d425b882531a970cedf0e,10*
G04 Gerber Generator version 0.2*
G04 Scale: 100 percent, Rotated: No, Reflected: No *
G04 Dimensions in millimeters *
G04 leading zeros omitted , absolute positions ,4 integer and 5 decimal *
%FSLAX45Y45*%
%MOMM*%

%ADD10C,0.2540*%
%ADD29C,0.1524*%
%ADD30C,0.2032*%
%ADD31C,0.3000*%

%LPD*%
D29*
X3363716Y11545222D02*
G01*
X3361710Y11533695D01*
X3363760Y11519110D01*
X3368817Y11508940D01*
X3385451Y11496405D01*
X3396825Y11494195D01*
X3411410Y11496245D01*
X3421936Y11501351D01*
X3435471Y11510871D01*
X3451062Y11531561D01*
X3456330Y11546994D01*
X3458336Y11558521D01*
X3456287Y11573106D01*
X3451029Y11583428D01*
X3434394Y11595963D01*
X3423224Y11598020D01*
X3408639Y11595971D01*
X3398111Y11590865D01*
X3332274Y11568917D02*
G01*
X3329218Y11564858D01*
X3318690Y11559753D01*
X3311423Y11558549D01*
X3300049Y11560759D01*
X3283414Y11573294D01*
X3278157Y11583619D01*
X3277308Y11590936D01*
X3279315Y11602463D01*
X3285583Y11610779D01*
X3296109Y11615887D01*
X3313752Y11621993D01*
X3386317Y11632191D01*
X3328301Y11675910D01*
X3568191Y11279378D02*
G01*
X3557777Y11274044D01*
X3547363Y11263629D01*
X3542284Y11253470D01*
X3542284Y11232642D01*
X3547363Y11222228D01*
X3557777Y11211813D01*
X3568191Y11206479D01*
X3583940Y11201400D01*
X3609847Y11201400D01*
X3625341Y11206479D01*
X3635756Y11211813D01*
X3646170Y11222228D01*
X3651250Y11232642D01*
X3651250Y11253470D01*
X3646170Y11263629D01*
X3635756Y11274044D01*
X3625341Y11279378D01*
X3542284Y11365484D02*
G01*
X3614927Y11313668D01*
X3614927Y11391645D01*
X3542284Y11365484D02*
G01*
X3651250Y11365484D01*
X3046729Y11545315D02*
G01*
X2994913Y11545315D01*
X2989579Y11498579D01*
X2994913Y11503660D01*
X3010408Y11508994D01*
X3026156Y11508994D01*
X3041650Y11503660D01*
X3052063Y11493500D01*
X3057143Y11477752D01*
X3057143Y11467337D01*
X3052063Y11451844D01*
X3041650Y11441429D01*
X3026156Y11436350D01*
X3010408Y11436350D01*
X2994913Y11441429D01*
X2989579Y11446510D01*
X2984500Y11456924D01*
X3091434Y11545315D02*
G01*
X3133090Y11436350D01*
X3174745Y11545315D02*
G01*
X3133090Y11436350D01*
X2564129Y11202415D02*
G01*
X2512313Y11202415D01*
X2506979Y11155679D01*
X2512313Y11160760D01*
X2527808Y11166094D01*
X2543556Y11166094D01*
X2559050Y11160760D01*
X2569463Y11150600D01*
X2574543Y11134852D01*
X2574543Y11124437D01*
X2569463Y11108944D01*
X2559050Y11098529D01*
X2543556Y11093450D01*
X2527808Y11093450D01*
X2512313Y11098529D01*
X2506979Y11103610D01*
X2501900Y11114024D01*
X2671318Y11202415D02*
G01*
X2619247Y11202415D01*
X2614168Y11155679D01*
X2619247Y11160760D01*
X2634995Y11166094D01*
X2650490Y11166094D01*
X2665984Y11160760D01*
X2676397Y11150600D01*
X2681731Y11134852D01*
X2681731Y11124437D01*
X2676397Y11108944D01*
X2665984Y11098529D01*
X2650490Y11093450D01*
X2634995Y11093450D01*
X2619247Y11098529D01*
X2614168Y11103610D01*
X2608834Y11114024D01*
X2778252Y11202415D02*
G01*
X2726436Y11202415D01*
X2721102Y11155679D01*
X2726436Y11160760D01*
X2741929Y11166094D01*
X2757424Y11166094D01*
X2773172Y11160760D01*
X2783586Y11150600D01*
X2788665Y11134852D01*
X2788665Y11124437D01*
X2783586Y11108944D01*
X2773172Y11098529D01*
X2757424Y11093450D01*
X2741929Y11093450D01*
X2726436Y11098529D01*
X2721102Y11103610D01*
X2716022Y11114024D01*
X2605277Y10668508D02*
G01*
X2599943Y10678921D01*
X2589529Y10689336D01*
X2579370Y10694415D01*
X2558541Y10694415D01*
X2548127Y10689336D01*
X2537713Y10678921D01*
X2532379Y10668508D01*
X2527300Y10652760D01*
X2527300Y10626852D01*
X2532379Y10611358D01*
X2537713Y10600944D01*
X2548127Y10590529D01*
X2558541Y10585450D01*
X2579370Y10585450D01*
X2589529Y10590529D01*
X2599943Y10600944D01*
X2605277Y10611358D01*
X2639568Y10673587D02*
G01*
X2649981Y10678921D01*
X2665475Y10694415D01*
X2665475Y10585450D01*
X2080353Y11552435D02*
G01*
X2154671Y11472743D01*
X2080353Y11552435D02*
G01*
X2106919Y11577210D01*
X2121900Y11584233D01*
X2136434Y11583548D01*
X2147437Y11579567D01*
X2161893Y11571516D01*
X2179561Y11552567D01*
X2186414Y11537769D01*
X2189614Y11526517D01*
X2189286Y11511970D01*
X2181235Y11497515D01*
X2154671Y11472743D01*
X2172766Y11610134D02*
G01*
X2176744Y11621137D01*
X2177696Y11643207D01*
X2252009Y11563515D01*
X2197100Y11187684D02*
G01*
X2197100Y11296650D01*
X2197100Y11187684D02*
G01*
X2160777Y11187684D01*
X2145029Y11192763D01*
X2134870Y11203178D01*
X2129536Y11213592D01*
X2124456Y11229339D01*
X2124456Y11255247D01*
X2129536Y11270742D01*
X2134870Y11281155D01*
X2145029Y11291570D01*
X2160777Y11296650D01*
X2197100Y11296650D01*
X2084831Y11213592D02*
G01*
X2084831Y11208512D01*
X2079752Y11198097D01*
X2074418Y11192763D01*
X2064004Y11187684D01*
X2043429Y11187684D01*
X2033015Y11192763D01*
X2027681Y11198097D01*
X2022602Y11208512D01*
X2022602Y11218926D01*
X2027681Y11229339D01*
X2038095Y11244834D01*
X2090165Y11296650D01*
X2017268Y11296650D01*
X2578100Y11913615D02*
G01*
X2578100Y11804650D01*
X2612390Y11913615D02*
G01*
X2612390Y11804650D01*
X2612390Y11913615D02*
G01*
X2685034Y11804650D01*
X2685034Y11913615D02*
G01*
X2685034Y11804650D01*
X2139441Y10211815D02*
G01*
X2129027Y10206736D01*
X2118613Y10196321D01*
X2113279Y10185908D01*
X2108200Y10170160D01*
X2108200Y10144252D01*
X2113279Y10128758D01*
X2118613Y10118344D01*
X2129027Y10107929D01*
X2139441Y10102850D01*
X2160270Y10102850D01*
X2170429Y10107929D01*
X2180843Y10118344D01*
X2186177Y10128758D01*
X2191258Y10144252D01*
X2191258Y10170160D01*
X2186177Y10185908D01*
X2180843Y10196321D01*
X2170429Y10206736D01*
X2160270Y10211815D01*
X2139441Y10211815D01*
X2225547Y10211815D02*
G01*
X2225547Y10133837D01*
X2230881Y10118344D01*
X2241295Y10107929D01*
X2256790Y10102850D01*
X2267204Y10102850D01*
X2282697Y10107929D01*
X2293111Y10118344D01*
X2298445Y10133837D01*
X2298445Y10211815D01*
X2369058Y10211815D02*
G01*
X2369058Y10102850D01*
X2332736Y10211815D02*
G01*
X2405379Y10211815D01*
X2921000Y10707115D02*
G01*
X2921000Y10598150D01*
X2921000Y10598150D02*
G01*
X2983229Y10598150D01*
X3017520Y10707115D02*
G01*
X3017520Y10598150D01*
X3017520Y10707115D02*
G01*
X3059175Y10598150D01*
X3100831Y10707115D02*
G01*
X3059175Y10598150D01*
X3100831Y10707115D02*
G01*
X3100831Y10598150D01*
X3145536Y10707115D02*
G01*
X3202686Y10707115D01*
X3171443Y10665460D01*
X3186938Y10665460D01*
X3197352Y10660379D01*
X3202686Y10655300D01*
X3207765Y10639552D01*
X3207765Y10629137D01*
X3202686Y10613644D01*
X3192272Y10603229D01*
X3176524Y10598150D01*
X3161029Y10598150D01*
X3145536Y10603229D01*
X3140202Y10608310D01*
X3135122Y10618724D01*
X3309620Y10670794D02*
G01*
X3304540Y10655300D01*
X3294125Y10644886D01*
X3278377Y10639552D01*
X3273297Y10639552D01*
X3257550Y10644886D01*
X3247390Y10655300D01*
X3242056Y10670794D01*
X3242056Y10675874D01*
X3247390Y10691621D01*
X3257550Y10702036D01*
X3273297Y10707115D01*
X3278377Y10707115D01*
X3294125Y10702036D01*
X3304540Y10691621D01*
X3309620Y10670794D01*
X3309620Y10644886D01*
X3304540Y10618724D01*
X3294125Y10603229D01*
X3278377Y10598150D01*
X3267963Y10598150D01*
X3252470Y10603229D01*
X3247390Y10613644D01*
X3354324Y10707115D02*
G01*
X3411474Y10707115D01*
X3380231Y10665460D01*
X3395979Y10665460D01*
X3406140Y10660379D01*
X3411474Y10655300D01*
X3416554Y10639552D01*
X3416554Y10629137D01*
X3411474Y10613644D01*
X3401059Y10603229D01*
X3385565Y10598150D01*
X3369818Y10598150D01*
X3354324Y10603229D01*
X3348990Y10608310D01*
X3343909Y10618724D01*
X2133600Y10986515D02*
G01*
X2133600Y10877550D01*
X2133600Y10986515D02*
G01*
X2180336Y10986515D01*
X2195829Y10981436D01*
X2201163Y10976102D01*
X2206243Y10965687D01*
X2206243Y10955274D01*
X2201163Y10944860D01*
X2195829Y10939779D01*
X2180336Y10934700D01*
X2133600Y10934700D01*
X2169922Y10934700D02*
G01*
X2206243Y10877550D01*
X2240534Y10965687D02*
G01*
X2250947Y10971021D01*
X2266695Y10986515D01*
X2266695Y10877550D01*
X2489200Y10453115D02*
G01*
X2489200Y10344150D01*
X2489200Y10453115D02*
G01*
X2535936Y10453115D01*
X2551429Y10448036D01*
X2556763Y10442702D01*
X2561843Y10432287D01*
X2561843Y10421874D01*
X2556763Y10411460D01*
X2551429Y10406379D01*
X2535936Y10401300D01*
X2489200Y10401300D01*
X2525522Y10401300D02*
G01*
X2561843Y10344150D01*
X2648204Y10453115D02*
G01*
X2596134Y10380471D01*
X2674111Y10380471D01*
X2648204Y10453115D02*
G01*
X2648204Y10344150D01*
G36*
X1995576Y11528958D02*
G01*
X1973275Y11508181D01*
X1995119Y11484762D01*
X2017420Y11505539D01*
G37*
G36*
X2110486Y11405717D02*
G01*
X2088184Y11384940D01*
X2110028Y11361521D01*
X2132279Y11382349D01*
G37*
G36*
X2250897Y11183975D02*
G01*
X2250897Y11151971D01*
X2281377Y11151971D01*
X2281377Y11183975D01*
G37*
G36*
X2250897Y11352428D02*
G01*
X2250897Y11320475D01*
X2281377Y11320475D01*
X2281377Y11352428D01*
G37*
X2887070Y11758935D02*
G01*
X2999679Y11674078D01*
X3108439Y11818409D02*
G01*
X2995830Y11903265D01*
X2974489Y11900265D02*
G01*
X2884070Y11780278D01*
X3176369Y11540934D02*
G01*
X3063760Y11625790D01*
X3172520Y11770121D02*
G01*
X3285129Y11685264D01*
X3288129Y11663921D02*
G01*
X3197710Y11543934D01*
X3404539Y11379230D02*
G01*
X3404539Y11300221D01*
X3504260Y11300221D02*
G01*
X3504260Y11379230D01*
X3489020Y11394470D02*
G01*
X3419779Y11394470D01*
X3404539Y11175969D02*
G01*
X3404539Y11254978D01*
X3504260Y11254978D02*
G01*
X3504260Y11175969D01*
X3489020Y11160729D02*
G01*
X3419779Y11160729D01*
X3232485Y11548318D02*
G01*
X2967248Y11548318D01*
X2967248Y11433436D01*
X3232485Y11083081D02*
G01*
X2967248Y11083081D01*
X2967248Y11197963D01*
X2350879Y11011159D02*
G01*
X2350879Y11315440D01*
X2856120Y11315440D01*
X2856120Y11011159D01*
X2350879Y11011159D01*
X2844619Y10751860D02*
G01*
X2696121Y10751860D01*
X2696121Y10533339D02*
G01*
X2844619Y10533339D01*
X2859859Y10548579D02*
G01*
X2859859Y10736620D01*
X2362380Y10751860D02*
G01*
X2510878Y10751860D01*
X2510878Y10533339D02*
G01*
X2362380Y10533339D01*
X2347140Y10548579D02*
G01*
X2347140Y10736620D01*
X2121529Y11382695D02*
G01*
X2322829Y11570413D01*
X1995192Y11518178D02*
G01*
X2196492Y11705894D01*
X2196492Y11705894D02*
G01*
X2209655Y11691774D01*
X2322829Y11570413D02*
G01*
X2309665Y11584531D01*
X2032200Y11545851D02*
G01*
X2151720Y11417688D01*
X2258517Y11344833D02*
G01*
X1983272Y11344833D01*
X2258517Y11159586D02*
G01*
X1983272Y11159586D01*
X1983272Y11159586D02*
G01*
X1983272Y11178890D01*
X1983272Y11344833D02*
G01*
X1983272Y11325529D01*
X2212573Y11164587D02*
G01*
X2212573Y11339832D01*
D30*
X2870200Y11861800D02*
G01*
X2870200Y11610339D01*
X2362200Y11610339D01*
X2362200Y11861800D01*
X2870200Y11861800D01*
X2959100Y10223500D02*
G01*
X2959100Y9972039D01*
X2451100Y9972039D01*
X2451100Y10223500D01*
X2959100Y10223500D01*
D29*
X2891980Y10477759D02*
G01*
X2891980Y10782040D01*
X3407219Y10782040D01*
X3407219Y10477759D01*
X2891980Y10477759D01*
D10*
X2311095Y10436301D02*
G01*
X2311095Y11136299D01*
X1841093Y11136299D01*
X1892300Y11087100D01*
X1892300Y10487507D01*
X1841093Y10436301D01*
X2311095Y10436301D01*
D29*
X2660520Y10267990D02*
G01*
X2796512Y10267990D01*
X2796512Y10483809D01*
X2660520Y10483809D01*
X2470279Y10267990D02*
G01*
X2334287Y10267990D01*
X2334287Y10483809D01*
X2470279Y10483809D01*
G75*
G01*
X2995831Y11903266D02*
G03*
X2974490Y11900266I-9170J-12173D01*
G75*
G01*
X2884071Y11780279D02*
G03*
X2887071Y11758935I12171J-9172D01*
G75*
G01*
X3285129Y11685265D02*
G02*
X3288129Y11663921I-9171J-12172D01*
G75*
G01*
X3197710Y11543934D02*
G02*
X3176369Y11540934I-12171J9173D01*
G75*
G01*
X3504260Y11379230D02*
G03*
X3489020Y11394470I-15240J0D01*
G75*
G01*
X3419780Y11394470D02*
G03*
X3404540Y11379230I0J-15240D01*
G75*
G01*
X3504260Y11175970D02*
G02*
X3489020Y11160730I-15240J0D01*
G75*
G01*
X3419780Y11160730D02*
G02*
X3404540Y11175970I0J15240D01*
G75*
G01*
X2844620Y10533339D02*
G03*
X2859860Y10548579I0J15240D01*
G75*
G01*
X2859860Y10736621D02*
G03*
X2844620Y10751861I-15240J0D01*
G75*
G01*
X2362380Y10533339D02*
G02*
X2347140Y10548579I0J15240D01*
G75*
G01*
X2347140Y10736621D02*
G02*
X2362380Y10751861I15240J0D01*
D31*
G75*
G01
X2428011Y11086389D02*
G03X2428011Y11086389I-15011J0D01*
G75*
G01
X2354072Y10886516D02*
G03X2354072Y10886516I-15011J0D01*
G75*
G01
X2974111Y10552989D02*
G03X2974111Y10552989I-15011J0D01*
G75*
G01
X2897378Y10361651D02*
G03X2897378Y10361651I-15011J0D01*
M02*
