G04 Layer: BottomSolderMaskLayer*
G04 EasyEDA v6.4.31, 2022-04-13 09:50:49*
G04 15e1e23020854c049c4cbe606706b0dd,9d3d63f08f7d425b882531a970cedf0e,10*
G04 Gerber Generator version 0.2*
G04 Scale: 100 percent, Rotated: No, Reflected: No *
G04 Dimensions in millimeters *
G04 leading zeros omitted , absolute positions ,4 integer and 5 decimal *
%FSLAX45Y45*%
%MOMM*%

%ADD33C,0.7316*%
%ADD40C,1.6764*%
%ADD41C,1.3416*%
%ADD43C,0.6896*%

%LPD*%
D33*
X3406899Y11290300D02*
G01*
X3530399Y11290300D01*
X3406899Y11163300D02*
G01*
X3530399Y11163300D01*
X3406899Y11036300D02*
G01*
X3530399Y11036300D01*
X3406899Y10909300D02*
G01*
X3530399Y10909300D01*
X2870400Y11290300D02*
G01*
X2993900Y11290300D01*
X2870400Y11163300D02*
G01*
X2993900Y11163300D01*
X2870400Y11036300D02*
G01*
X2993900Y11036300D01*
X2870400Y10909300D02*
G01*
X2993900Y10909300D01*
D43*
X2755900Y10895408D02*
G01*
X2755900Y10749709D01*
X2628900Y10895408D02*
G01*
X2628900Y10749709D01*
X2501900Y10895408D02*
G01*
X2501900Y10749709D01*
X2374900Y10895408D02*
G01*
X2374900Y10749709D01*
X2755900Y11449890D02*
G01*
X2755900Y11304191D01*
X2628900Y11449890D02*
G01*
X2628900Y11304191D01*
X2501900Y11449890D02*
G01*
X2501900Y11304191D01*
X2374900Y11449890D02*
G01*
X2374900Y11304191D01*
G36*
X2185161Y10997437D02*
G01*
X2185161Y11087608D01*
X2285238Y11087608D01*
X2285238Y10997437D01*
G37*
G36*
X2185161Y11137392D02*
G01*
X2185161Y11227562D01*
X2285238Y11227562D01*
X2285238Y11137392D01*
G37*
G36*
X3224529Y10661395D02*
G01*
X3224529Y10792460D01*
X3404870Y10792460D01*
X3404870Y10661395D01*
G37*
G36*
X3224529Y10365739D02*
G01*
X3224529Y10496804D01*
X3404870Y10496804D01*
X3404870Y10365739D01*
G37*
G36*
X3219195Y11441429D02*
G01*
X3219195Y11621770D01*
X3350259Y11621770D01*
X3350259Y11441429D01*
G37*
G36*
X2923540Y11441429D02*
G01*
X2923540Y11621770D01*
X3054604Y11621770D01*
X3054604Y11441429D01*
G37*
G36*
X3031490Y10299700D02*
G01*
X3031490Y10655300D01*
X3169920Y10655300D01*
X3169920Y10299700D01*
G37*
G36*
X2418079Y10299700D02*
G01*
X2418079Y10655300D01*
X2556509Y10655300D01*
X2556509Y10299700D01*
G37*
G36*
X2198624Y11477244D02*
G01*
X2198624Y11547347D01*
X2315718Y11547347D01*
X2315718Y11477244D01*
G37*
G36*
X2198624Y11287252D02*
G01*
X2198624Y11357355D01*
X2315718Y11357355D01*
X2315718Y11287252D01*
G37*
G36*
X1951481Y11382247D02*
G01*
X1951481Y11452352D01*
X2068575Y11452352D01*
X2068575Y11382247D01*
G37*
G36*
X2405379Y11650979D02*
G01*
X2405379Y11818620D01*
X2573020Y11818620D01*
X2573020Y11650979D01*
G37*
D40*
G01*
X2743200Y11734800D03*
G36*
X2494279Y10012679D02*
G01*
X2494279Y10180320D01*
X2661920Y10180320D01*
X2661920Y10012679D01*
G37*
G01*
X2832100Y10096500D03*
D41*
G01*
X2070100Y11036300D03*
G01*
X2070100Y10782300D03*
G01*
X2070100Y10528300D03*
M02*
