G04 Layer: BottomPasteMaskLayer*
G04 EasyEDA v6.4.31, 2022-04-13 09:50:49*
G04 15e1e23020854c049c4cbe606706b0dd,9d3d63f08f7d425b882531a970cedf0e,10*
G04 Gerber Generator version 0.2*
G04 Scale: 100 percent, Rotated: No, Reflected: No *
G04 Dimensions in millimeters *
G04 leading zeros omitted , absolute positions ,4 integer and 5 decimal *
%FSLAX45Y45*%
%MOMM*%

%ADD13C,0.6300*%
%ADD24C,0.5880*%

%LPD*%
G36*
X3239668Y10787329D02*
G01*
X3229660Y10777372D01*
X3229660Y10676585D01*
X3239668Y10666577D01*
X3275787Y10666577D01*
X3285794Y10676585D01*
X3285794Y10697667D01*
X3295802Y10707674D01*
X3333597Y10707674D01*
X3343605Y10697667D01*
X3343605Y10676585D01*
X3353612Y10666577D01*
X3389731Y10666577D01*
X3399739Y10676585D01*
X3399739Y10777372D01*
X3389731Y10787329D01*
G37*
G36*
X3239668Y10491622D02*
G01*
X3229660Y10481614D01*
X3229660Y10380827D01*
X3239668Y10370870D01*
X3389731Y10370870D01*
X3399739Y10380827D01*
X3399739Y10481614D01*
X3389731Y10491622D01*
X3353612Y10491622D01*
X3343605Y10481614D01*
X3343605Y10460532D01*
X3333597Y10450525D01*
X3295802Y10450525D01*
X3285794Y10460532D01*
X3285794Y10481614D01*
X3275787Y10491622D01*
G37*
G36*
X3234385Y11616639D02*
G01*
X3224377Y11606631D01*
X3224377Y11570512D01*
X3234385Y11560505D01*
X3255467Y11560505D01*
X3265474Y11550497D01*
X3265474Y11512702D01*
X3255467Y11502694D01*
X3234385Y11502694D01*
X3224377Y11492687D01*
X3224377Y11456568D01*
X3234385Y11446560D01*
X3335172Y11446560D01*
X3345129Y11456568D01*
X3345129Y11606631D01*
X3335172Y11616639D01*
G37*
G36*
X2938627Y11616639D02*
G01*
X2928670Y11606631D01*
X2928670Y11456568D01*
X2938627Y11446560D01*
X3039414Y11446560D01*
X3049422Y11456568D01*
X3049422Y11492687D01*
X3039414Y11502694D01*
X3018332Y11502694D01*
X3008325Y11512702D01*
X3008325Y11550497D01*
X3018332Y11560505D01*
X3039414Y11560505D01*
X3049422Y11570512D01*
X3049422Y11606631D01*
X3039414Y11616639D01*
G37*
G36*
X3046476Y10650321D02*
G01*
X3036519Y10640314D01*
X3036519Y10546232D01*
X3046476Y10536275D01*
X3070098Y10536275D01*
X3080105Y10526268D01*
X3080105Y10428732D01*
X3070098Y10418724D01*
X3046476Y10418724D01*
X3036519Y10408767D01*
X3036519Y10314686D01*
X3046476Y10304678D01*
X3154730Y10304678D01*
X3164738Y10314686D01*
X3164738Y10640314D01*
X3154730Y10650321D01*
G37*
G36*
X2433269Y10650321D02*
G01*
X2423261Y10640314D01*
X2423261Y10314686D01*
X2433269Y10304678D01*
X2541524Y10304678D01*
X2551480Y10314686D01*
X2551480Y10408767D01*
X2541524Y10418724D01*
X2517902Y10418724D01*
X2507894Y10428732D01*
X2507894Y10526268D01*
X2517902Y10536275D01*
X2541524Y10536275D01*
X2551480Y10546232D01*
X2551480Y10640314D01*
X2541524Y10650321D01*
G37*
D13*
X3406899Y11290300D02*
G01*
X3530399Y11290300D01*
X3406899Y11163300D02*
G01*
X3530399Y11163300D01*
X3406899Y11036300D02*
G01*
X3530399Y11036300D01*
X3406899Y10909300D02*
G01*
X3530399Y10909300D01*
X2870400Y11290300D02*
G01*
X2993900Y11290300D01*
X2870400Y11163300D02*
G01*
X2993900Y11163300D01*
X2870400Y11036300D02*
G01*
X2993900Y11036300D01*
X2870400Y10909300D02*
G01*
X2993900Y10909300D01*
D24*
X2755900Y10895408D02*
G01*
X2755900Y10749709D01*
X2628900Y10895408D02*
G01*
X2628900Y10749709D01*
X2501900Y10895408D02*
G01*
X2501900Y10749709D01*
X2374900Y10895408D02*
G01*
X2374900Y10749709D01*
X2755900Y11449890D02*
G01*
X2755900Y11304191D01*
X2628900Y11449890D02*
G01*
X2628900Y11304191D01*
X2501900Y11449890D02*
G01*
X2501900Y11304191D01*
X2374900Y11449890D02*
G01*
X2374900Y11304191D01*
G36*
X2190198Y11082500D02*
G01*
X2190198Y11002500D01*
X2280201Y11002500D01*
X2280201Y11082500D01*
G37*
G36*
X2190198Y11222499D02*
G01*
X2190198Y11142499D01*
X2280201Y11142499D01*
X2280201Y11222499D01*
G37*
G36*
X2203612Y11482296D02*
G01*
X2310612Y11482296D01*
X2310612Y11542295D01*
X2203612Y11542295D01*
G37*
G36*
X2203612Y11292304D02*
G01*
X2310612Y11292304D01*
X2310612Y11352303D01*
X2203612Y11352303D01*
G37*
G36*
X1956612Y11387300D02*
G01*
X2063612Y11387300D01*
X2063612Y11447299D01*
X1956612Y11447299D01*
G37*
M02*
