G04 Layer: BottomLayer*
G04 EasyEDA v6.4.31, 2022-04-13 09:50:49*
G04 15e1e23020854c049c4cbe606706b0dd,9d3d63f08f7d425b882531a970cedf0e,10*
G04 Gerber Generator version 0.2*
G04 Scale: 100 percent, Rotated: No, Reflected: No *
G04 Dimensions in millimeters *
G04 leading zeros omitted , absolute positions ,4 integer and 5 decimal *
%FSLAX45Y45*%
%MOMM*%

%ADD10C,0.2540*%
%ADD11C,1.0000*%
%ADD13C,0.6300*%
%ADD14C,0.6096*%
%ADD21R,1.5748X1.5748*%
%ADD22C,1.5748*%
%ADD23C,1.2400*%
%ADD24C,0.5880*%
%ADD26R,1.7010X1.2075*%

%LPD*%
G36*
X2680716Y9822586D02*
G01*
X2634843Y9824059D01*
X2589022Y9827514D01*
X2543454Y9832898D01*
X2498140Y9840214D01*
X2453182Y9849510D01*
X2408682Y9860686D01*
X2364638Y9873742D01*
X2321255Y9888677D01*
X2278532Y9905441D01*
X2236520Y9924034D01*
X2195423Y9944404D01*
X2155190Y9966553D01*
X2115921Y9990328D01*
X2077720Y10015778D01*
X2040636Y10042855D01*
X2004771Y10071506D01*
X1970125Y10101630D01*
X1936800Y10133228D01*
X1904898Y10166197D01*
X1874418Y10200538D01*
X1845411Y10236098D01*
X1817979Y10272877D01*
X1792122Y10310825D01*
X1767890Y10349839D01*
X1745386Y10389819D01*
X1724609Y10430764D01*
X1705559Y10472572D01*
X1688338Y10515092D01*
X1672945Y10558373D01*
X1659432Y10602214D01*
X1647799Y10646613D01*
X1638096Y10691469D01*
X1630273Y10736732D01*
X1624431Y10782249D01*
X1620520Y10828020D01*
X1618538Y10873841D01*
X1618589Y10919764D01*
X1620520Y10965637D01*
X1624482Y11011357D01*
X1630324Y11056874D01*
X1638147Y11102136D01*
X1647901Y11146993D01*
X1659585Y11191392D01*
X1673098Y11235232D01*
X1688490Y11278514D01*
X1705762Y11321034D01*
X1724761Y11362842D01*
X1745589Y11403736D01*
X1768144Y11443716D01*
X1792325Y11482730D01*
X1818233Y11520678D01*
X1845665Y11557457D01*
X1874672Y11593017D01*
X1905203Y11627307D01*
X1937156Y11660276D01*
X1970481Y11691874D01*
X2005075Y11721998D01*
X2040991Y11750598D01*
X2078075Y11777675D01*
X2116277Y11803075D01*
X2155545Y11826900D01*
X2195779Y11848998D01*
X2236927Y11869318D01*
X2278938Y11887911D01*
X2321661Y11904675D01*
X2365044Y11919610D01*
X2409088Y11932615D01*
X2453589Y11943791D01*
X2498547Y11953036D01*
X2543911Y11960352D01*
X2589479Y11965736D01*
X2635250Y11969140D01*
X2681122Y11970613D01*
X2727045Y11970105D01*
X2772867Y11967667D01*
X2818587Y11963247D01*
X2864053Y11956897D01*
X2909163Y11948566D01*
X2953918Y11938355D01*
X2998216Y11926214D01*
X3041954Y11912193D01*
X3084982Y11896344D01*
X3127349Y11878665D01*
X3168954Y11859158D01*
X3209645Y11837924D01*
X3249371Y11814962D01*
X3288131Y11790324D01*
X3325774Y11764060D01*
X3362248Y11736222D01*
X3397504Y11706809D01*
X3431489Y11675973D01*
X3464102Y11643664D01*
X3495344Y11609984D01*
X3525062Y11575034D01*
X3553307Y11538864D01*
X3579977Y11501475D01*
X3605022Y11462969D01*
X3628390Y11423497D01*
X3650030Y11383010D01*
X3669944Y11341658D01*
X3688079Y11299444D01*
X3704386Y11256568D01*
X3718814Y11212982D01*
X3731412Y11168837D01*
X3742080Y11124184D01*
X3750868Y11079124D01*
X3757676Y11033760D01*
X3762552Y10988090D01*
X3765499Y10942269D01*
X3766464Y10896396D01*
X3765499Y10850473D01*
X3762552Y10804652D01*
X3757625Y10759033D01*
X3750767Y10713618D01*
X3741978Y10668609D01*
X3731310Y10623956D01*
X3718712Y10579811D01*
X3704234Y10536224D01*
X3687876Y10493349D01*
X3669741Y10451185D01*
X3649827Y10409783D01*
X3628136Y10369346D01*
X3604768Y10329824D01*
X3579723Y10291368D01*
X3553053Y10254030D01*
X3524808Y10217810D01*
X3495040Y10182860D01*
X3463798Y10149230D01*
X3431184Y10116921D01*
X3397199Y10086086D01*
X3361893Y10056723D01*
X3325418Y10028885D01*
X3287776Y10002621D01*
X3249015Y9977983D01*
X3209239Y9955072D01*
X3168548Y9933838D01*
X3126994Y9914382D01*
X3084626Y9896703D01*
X3041497Y9880854D01*
X2997809Y9866833D01*
X2953512Y9854742D01*
X2908757Y9844532D01*
X2863596Y9836251D01*
X2818130Y9829901D01*
X2772460Y9825532D01*
X2726588Y9823043D01*
G37*

%LPC*%
G36*
X2832100Y9991852D02*
G01*
X2845765Y9992766D01*
X2859176Y9995458D01*
X2872130Y9999827D01*
X2884424Y10005872D01*
X2895803Y10013492D01*
X2906064Y10022535D01*
X2915107Y10032796D01*
X2922727Y10044176D01*
X2928772Y10056469D01*
X2933141Y10069423D01*
X2935833Y10082834D01*
X2936748Y10096500D01*
X2935833Y10110165D01*
X2933141Y10123576D01*
X2928772Y10136530D01*
X2922727Y10148824D01*
X2915107Y10160203D01*
X2906064Y10170464D01*
X2895803Y10179507D01*
X2884424Y10187127D01*
X2872130Y10193172D01*
X2859176Y10197541D01*
X2845765Y10200233D01*
X2832100Y10201148D01*
X2818434Y10200233D01*
X2805023Y10197541D01*
X2792069Y10193172D01*
X2779776Y10187127D01*
X2768396Y10179507D01*
X2758135Y10170464D01*
X2749092Y10160203D01*
X2741472Y10148824D01*
X2735427Y10136530D01*
X2731058Y10123576D01*
X2728366Y10110165D01*
X2727452Y10096500D01*
X2728366Y10082834D01*
X2731058Y10069423D01*
X2735427Y10056469D01*
X2741472Y10044176D01*
X2749092Y10032796D01*
X2758135Y10022535D01*
X2768396Y10013492D01*
X2779776Y10005872D01*
X2792069Y9999827D01*
X2805023Y9995458D01*
X2818434Y9992766D01*
G37*
G36*
X2499918Y9991852D02*
G01*
X2656281Y9991852D01*
X2662580Y9992563D01*
X2668066Y9994493D01*
X2672943Y9997541D01*
X2677058Y10001656D01*
X2680106Y10006533D01*
X2682036Y10012019D01*
X2682748Y10018318D01*
X2682748Y10174681D01*
X2682036Y10180980D01*
X2680106Y10186466D01*
X2677058Y10191343D01*
X2672943Y10195458D01*
X2668066Y10198506D01*
X2662580Y10200436D01*
X2656281Y10201148D01*
X2499918Y10201148D01*
X2493619Y10200436D01*
X2487726Y10198354D01*
X2484374Y10197795D01*
X2283561Y10197795D01*
X2279650Y10198557D01*
X2276348Y10200792D01*
X2053437Y10423702D01*
X2051151Y10427157D01*
X2050440Y10431170D01*
X2051354Y10435132D01*
X2053793Y10438434D01*
X2057298Y10440517D01*
X2061311Y10441025D01*
X2070100Y10440416D01*
X2082596Y10441330D01*
X2094839Y10443972D01*
X2106625Y10448340D01*
X2117598Y10454386D01*
X2127656Y10461904D01*
X2136495Y10470743D01*
X2144014Y10480802D01*
X2150059Y10491774D01*
X2154428Y10503560D01*
X2157069Y10515803D01*
X2157984Y10528300D01*
X2157069Y10540796D01*
X2154428Y10553039D01*
X2150059Y10564825D01*
X2144014Y10575798D01*
X2136495Y10585856D01*
X2127656Y10594695D01*
X2117598Y10602214D01*
X2106625Y10608259D01*
X2094839Y10612628D01*
X2082596Y10615269D01*
X2070100Y10616184D01*
X2057603Y10615269D01*
X2045360Y10612628D01*
X2033574Y10608259D01*
X2022602Y10602214D01*
X2012543Y10594695D01*
X2003704Y10585856D01*
X1999183Y10579862D01*
X1996033Y10577118D01*
X1992020Y10575848D01*
X1987854Y10576306D01*
X1984248Y10578439D01*
X1981758Y10581843D01*
X1980895Y10585958D01*
X1980895Y10724642D01*
X1981758Y10728756D01*
X1984248Y10732160D01*
X1987854Y10734294D01*
X1992020Y10734751D01*
X1996033Y10733481D01*
X1999183Y10730738D01*
X2003704Y10724743D01*
X2012543Y10715904D01*
X2022602Y10708386D01*
X2033574Y10702340D01*
X2045360Y10697972D01*
X2057603Y10695330D01*
X2070100Y10694416D01*
X2082596Y10695330D01*
X2094839Y10697972D01*
X2106625Y10702340D01*
X2117598Y10708386D01*
X2127656Y10715904D01*
X2136495Y10724743D01*
X2144014Y10734802D01*
X2150059Y10745774D01*
X2154428Y10757560D01*
X2157069Y10769803D01*
X2157984Y10782300D01*
X2157069Y10794796D01*
X2154428Y10807039D01*
X2150059Y10818825D01*
X2144014Y10829798D01*
X2136495Y10839856D01*
X2127656Y10848695D01*
X2117598Y10856214D01*
X2106625Y10862259D01*
X2094839Y10866628D01*
X2082596Y10869269D01*
X2070100Y10870184D01*
X2057603Y10869269D01*
X2045360Y10866628D01*
X2033574Y10862259D01*
X2022602Y10856214D01*
X2012543Y10848695D01*
X2003704Y10839856D01*
X1999183Y10833862D01*
X1996033Y10831118D01*
X1992020Y10829848D01*
X1987854Y10830306D01*
X1984248Y10832439D01*
X1981758Y10835843D01*
X1980895Y10839958D01*
X1980895Y10978642D01*
X1981758Y10982756D01*
X1984248Y10986160D01*
X1987854Y10988294D01*
X1992020Y10988751D01*
X1996033Y10987481D01*
X1999183Y10984738D01*
X2003704Y10978743D01*
X2012543Y10969904D01*
X2022602Y10962386D01*
X2033574Y10956340D01*
X2045360Y10951972D01*
X2057603Y10949330D01*
X2070100Y10948416D01*
X2082596Y10949330D01*
X2094839Y10951972D01*
X2106625Y10956340D01*
X2117598Y10962386D01*
X2127656Y10969904D01*
X2136495Y10978743D01*
X2144014Y10988802D01*
X2147570Y10995253D01*
X2150008Y10998250D01*
X2153462Y11000079D01*
X2157323Y11000486D01*
X2161032Y10999470D01*
X2164130Y10997082D01*
X2166061Y10993729D01*
X2166924Y10991291D01*
X2169972Y10986414D01*
X2174087Y10982299D01*
X2178964Y10979200D01*
X2184450Y10977321D01*
X2190750Y10976610D01*
X2206345Y10976610D01*
X2206345Y11016183D01*
X2167432Y11016183D01*
X2163419Y11016996D01*
X2160016Y11019383D01*
X2157882Y11022939D01*
X2157323Y11027054D01*
X2157984Y11036300D01*
X2157069Y11048796D01*
X2155393Y11056518D01*
X2155444Y11061039D01*
X2157425Y11065052D01*
X2160930Y11067846D01*
X2165350Y11068862D01*
X2206345Y11068862D01*
X2206345Y11106404D01*
X2207107Y11110315D01*
X2209342Y11113617D01*
X2212644Y11115802D01*
X2216505Y11116564D01*
X2253894Y11116564D01*
X2257755Y11115802D01*
X2261057Y11113617D01*
X2263292Y11110315D01*
X2264054Y11106404D01*
X2264054Y11068862D01*
X2306116Y11068862D01*
X2306116Y11081918D01*
X2305405Y11088268D01*
X2303475Y11093704D01*
X2300427Y11098631D01*
X2296312Y11102695D01*
X2294432Y11103914D01*
X2291486Y11106708D01*
X2289860Y11110468D01*
X2289860Y11114532D01*
X2291486Y11118291D01*
X2294432Y11121085D01*
X2296312Y11122304D01*
X2300427Y11126368D01*
X2303475Y11131296D01*
X2305405Y11136731D01*
X2306116Y11143081D01*
X2306116Y11194186D01*
X2306878Y11198047D01*
X2309063Y11201349D01*
X2312365Y11203533D01*
X2316276Y11204346D01*
X2320137Y11203533D01*
X2323439Y11201349D01*
X2477363Y11047476D01*
X2483561Y11042345D01*
X2490266Y11038789D01*
X2497480Y11036604D01*
X2505506Y11035792D01*
X2558491Y11035792D01*
X2562402Y11035030D01*
X2565704Y11032794D01*
X2567279Y11031220D01*
X2575306Y11025581D01*
X2584246Y11021466D01*
X2593695Y11018926D01*
X2603500Y11018062D01*
X2613304Y11018926D01*
X2622753Y11021466D01*
X2631694Y11025581D01*
X2639720Y11031220D01*
X2646680Y11038179D01*
X2652318Y11046206D01*
X2656433Y11055146D01*
X2658973Y11064595D01*
X2659837Y11074400D01*
X2658973Y11084204D01*
X2656433Y11093653D01*
X2652318Y11102594D01*
X2646680Y11110620D01*
X2639720Y11117580D01*
X2631694Y11123218D01*
X2622753Y11127333D01*
X2613304Y11129873D01*
X2603500Y11130737D01*
X2593695Y11129873D01*
X2584246Y11127333D01*
X2575306Y11123218D01*
X2567279Y11117580D01*
X2565704Y11116005D01*
X2562402Y11113770D01*
X2558491Y11113008D01*
X2525217Y11113008D01*
X2521305Y11113770D01*
X2518003Y11116005D01*
X2395829Y11238179D01*
X2393645Y11241379D01*
X2392883Y11245189D01*
X2393543Y11248999D01*
X2395575Y11252301D01*
X2398725Y11254536D01*
X2402535Y11256314D01*
X2410409Y11261852D01*
X2417216Y11268659D01*
X2422753Y11276584D01*
X2426817Y11285321D01*
X2428595Y11291824D01*
X2430627Y11295735D01*
X2434082Y11298428D01*
X2438400Y11299342D01*
X2442718Y11298428D01*
X2446172Y11295735D01*
X2448204Y11291824D01*
X2449982Y11285321D01*
X2454046Y11276584D01*
X2459583Y11268659D01*
X2466390Y11261852D01*
X2474264Y11256314D01*
X2483002Y11252250D01*
X2492298Y11249761D01*
X2501900Y11248948D01*
X2511501Y11249761D01*
X2520797Y11252250D01*
X2529535Y11256314D01*
X2537409Y11261852D01*
X2544216Y11268659D01*
X2549753Y11276584D01*
X2553817Y11285321D01*
X2555595Y11291824D01*
X2557627Y11295735D01*
X2561082Y11298428D01*
X2565400Y11299342D01*
X2569718Y11298428D01*
X2573172Y11295735D01*
X2575204Y11291824D01*
X2576982Y11285321D01*
X2581046Y11276584D01*
X2586583Y11268659D01*
X2593390Y11261852D01*
X2601264Y11256314D01*
X2610002Y11252250D01*
X2619298Y11249761D01*
X2628900Y11248948D01*
X2638501Y11249761D01*
X2647797Y11252250D01*
X2656535Y11256314D01*
X2664409Y11261852D01*
X2671216Y11268659D01*
X2676753Y11276584D01*
X2680817Y11285321D01*
X2682595Y11291824D01*
X2684627Y11295735D01*
X2688082Y11298428D01*
X2692400Y11299342D01*
X2696718Y11298428D01*
X2700172Y11295735D01*
X2702204Y11291824D01*
X2703982Y11285321D01*
X2708046Y11276584D01*
X2713583Y11268659D01*
X2720390Y11261852D01*
X2728264Y11256314D01*
X2737002Y11252250D01*
X2746298Y11249761D01*
X2755900Y11248948D01*
X2765501Y11249761D01*
X2774797Y11252250D01*
X2783535Y11256314D01*
X2791409Y11261852D01*
X2798216Y11268659D01*
X2799638Y11270640D01*
X2802737Y11273536D01*
X2806750Y11274907D01*
X2810967Y11274552D01*
X2814624Y11272469D01*
X2817164Y11269065D01*
X2819044Y11265001D01*
X2819958Y11261039D01*
X2819247Y11257026D01*
X2817012Y11253571D01*
X2779776Y11216335D01*
X2774645Y11210137D01*
X2771089Y11203432D01*
X2768904Y11196218D01*
X2768092Y11188192D01*
X2768092Y11119408D01*
X2767330Y11115497D01*
X2765094Y11112195D01*
X2763520Y11110620D01*
X2757881Y11102594D01*
X2753766Y11093653D01*
X2751226Y11084204D01*
X2750362Y11074400D01*
X2751226Y11064595D01*
X2753766Y11055146D01*
X2757881Y11046206D01*
X2763520Y11038179D01*
X2770479Y11031220D01*
X2778506Y11025581D01*
X2787446Y11021466D01*
X2796895Y11018926D01*
X2812135Y11017758D01*
X2815539Y11015929D01*
X2818028Y11012881D01*
X2822346Y11004905D01*
X2828188Y10997438D01*
X2835148Y10991037D01*
X2843072Y10985855D01*
X2851607Y10982096D01*
X2854807Y10979861D01*
X2856941Y10976610D01*
X2857703Y10972800D01*
X2856941Y10968990D01*
X2854807Y10965738D01*
X2851607Y10963503D01*
X2843072Y10959744D01*
X2835148Y10954562D01*
X2828188Y10948162D01*
X2822346Y10940694D01*
X2815234Y10927689D01*
X2811526Y10925251D01*
X2807157Y10924641D01*
X2802890Y10925962D01*
X2799638Y10928959D01*
X2798216Y10930940D01*
X2791409Y10937748D01*
X2783535Y10943285D01*
X2774797Y10947349D01*
X2765501Y10949838D01*
X2755900Y10950651D01*
X2746298Y10949838D01*
X2737002Y10947349D01*
X2728264Y10943285D01*
X2720390Y10937748D01*
X2713583Y10930940D01*
X2708046Y10923016D01*
X2703982Y10914278D01*
X2702204Y10907776D01*
X2700172Y10903864D01*
X2696718Y10901172D01*
X2692400Y10900257D01*
X2688082Y10901172D01*
X2684627Y10903864D01*
X2682595Y10907776D01*
X2680817Y10914278D01*
X2676753Y10923016D01*
X2671216Y10930940D01*
X2664409Y10937748D01*
X2656535Y10943285D01*
X2647797Y10947349D01*
X2638501Y10949838D01*
X2628900Y10950651D01*
X2619298Y10949838D01*
X2610002Y10947349D01*
X2601264Y10943285D01*
X2593390Y10937748D01*
X2586583Y10930940D01*
X2581046Y10923016D01*
X2576982Y10914278D01*
X2575204Y10907776D01*
X2573172Y10903864D01*
X2569718Y10901172D01*
X2565400Y10900257D01*
X2561082Y10901172D01*
X2557627Y10903864D01*
X2555595Y10907776D01*
X2553817Y10914278D01*
X2549753Y10923016D01*
X2544216Y10930940D01*
X2537409Y10937748D01*
X2529535Y10943285D01*
X2520797Y10947349D01*
X2511501Y10949838D01*
X2501900Y10950651D01*
X2492298Y10949838D01*
X2483002Y10947349D01*
X2474264Y10943285D01*
X2466390Y10937748D01*
X2459583Y10930940D01*
X2454046Y10923016D01*
X2449982Y10914278D01*
X2448204Y10907776D01*
X2446172Y10903864D01*
X2442718Y10901172D01*
X2438400Y10900257D01*
X2434082Y10901172D01*
X2430627Y10903864D01*
X2428595Y10907776D01*
X2426817Y10914278D01*
X2422753Y10923016D01*
X2417216Y10930940D01*
X2410409Y10937748D01*
X2402535Y10943285D01*
X2393797Y10947349D01*
X2384501Y10949838D01*
X2374900Y10950651D01*
X2365298Y10949838D01*
X2356002Y10947349D01*
X2347264Y10943285D01*
X2339390Y10937748D01*
X2332583Y10930940D01*
X2327046Y10923016D01*
X2322982Y10914278D01*
X2320493Y10904982D01*
X2319578Y10894974D01*
X2319578Y10849305D01*
X2318816Y10845393D01*
X2316632Y10842091D01*
X2277821Y10803331D01*
X2274925Y10801299D01*
X2271522Y10800384D01*
X2263495Y10799673D01*
X2254046Y10797133D01*
X2245106Y10793018D01*
X2237079Y10787380D01*
X2230120Y10780420D01*
X2224481Y10772394D01*
X2220366Y10763453D01*
X2217826Y10754004D01*
X2216962Y10744200D01*
X2217826Y10734395D01*
X2220366Y10724946D01*
X2224481Y10716006D01*
X2230120Y10707979D01*
X2237079Y10701020D01*
X2245106Y10695381D01*
X2254046Y10691266D01*
X2263495Y10688726D01*
X2273300Y10687862D01*
X2283104Y10688726D01*
X2292553Y10691266D01*
X2301494Y10695381D01*
X2309520Y10701020D01*
X2316480Y10707979D01*
X2318715Y10711180D01*
X2321966Y10714126D01*
X2326132Y10715447D01*
X2330500Y10714888D01*
X2334209Y10712551D01*
X2339390Y10707370D01*
X2347264Y10701832D01*
X2356002Y10697768D01*
X2365298Y10695279D01*
X2374900Y10694416D01*
X2384501Y10695279D01*
X2393797Y10697768D01*
X2402535Y10701832D01*
X2410409Y10707370D01*
X2417216Y10714177D01*
X2422753Y10722051D01*
X2426817Y10730788D01*
X2428595Y10737342D01*
X2430627Y10741202D01*
X2434082Y10743895D01*
X2438400Y10744860D01*
X2442718Y10743895D01*
X2446172Y10741202D01*
X2448204Y10737342D01*
X2449982Y10730788D01*
X2454046Y10722051D01*
X2459583Y10714177D01*
X2466390Y10707370D01*
X2474264Y10701832D01*
X2483002Y10697768D01*
X2492298Y10695279D01*
X2501900Y10694416D01*
X2511501Y10695279D01*
X2520797Y10697768D01*
X2529535Y10701832D01*
X2537409Y10707370D01*
X2544216Y10714177D01*
X2549753Y10722051D01*
X2553817Y10730788D01*
X2555595Y10737342D01*
X2557627Y10741202D01*
X2561082Y10743895D01*
X2565400Y10744860D01*
X2569718Y10743895D01*
X2573172Y10741202D01*
X2575204Y10737342D01*
X2576982Y10730788D01*
X2581046Y10722051D01*
X2586583Y10714177D01*
X2593390Y10707370D01*
X2601264Y10701832D01*
X2610002Y10697768D01*
X2619298Y10695279D01*
X2628900Y10694416D01*
X2638501Y10695279D01*
X2647797Y10697768D01*
X2656535Y10701832D01*
X2664409Y10707370D01*
X2671216Y10714177D01*
X2676753Y10722051D01*
X2680817Y10730788D01*
X2682595Y10737342D01*
X2684627Y10741202D01*
X2688082Y10743895D01*
X2692400Y10744860D01*
X2696718Y10743895D01*
X2700172Y10741202D01*
X2702204Y10737342D01*
X2703982Y10730788D01*
X2708046Y10722051D01*
X2713583Y10714177D01*
X2720390Y10707370D01*
X2728264Y10701832D01*
X2737002Y10697768D01*
X2746298Y10695279D01*
X2755900Y10694416D01*
X2765501Y10695279D01*
X2767838Y10695889D01*
X2771343Y10696194D01*
X2774746Y10695279D01*
X2777642Y10693247D01*
X3007614Y10463123D01*
X3009798Y10459821D01*
X3010611Y10455960D01*
X3010611Y10305288D01*
X3011322Y10298938D01*
X3013202Y10293502D01*
X3016300Y10288574D01*
X3020364Y10284510D01*
X3025292Y10281412D01*
X3030728Y10279481D01*
X3037078Y10278770D01*
X3164179Y10278770D01*
X3170478Y10279481D01*
X3175965Y10281412D01*
X3180842Y10284510D01*
X3184956Y10288574D01*
X3188055Y10293502D01*
X3189935Y10298938D01*
X3190646Y10305288D01*
X3190646Y10349382D01*
X3191560Y10353598D01*
X3194202Y10357053D01*
X3198012Y10359136D01*
X3202330Y10359390D01*
X3206394Y10357866D01*
X3213557Y10350652D01*
X3218434Y10347553D01*
X3223920Y10345674D01*
X3230219Y10344962D01*
X3265830Y10344962D01*
X3265830Y10394696D01*
X3200806Y10394696D01*
X3196945Y10395458D01*
X3193643Y10397642D01*
X3191459Y10400944D01*
X3190646Y10404856D01*
X3190646Y10457586D01*
X3191459Y10461498D01*
X3193643Y10464800D01*
X3196945Y10466984D01*
X3200806Y10467746D01*
X3265830Y10467746D01*
X3265830Y10517530D01*
X3230219Y10517530D01*
X3223920Y10516819D01*
X3220720Y10515701D01*
X3216910Y10515142D01*
X3213100Y10516057D01*
X3209950Y10518343D01*
X3207918Y10521594D01*
X3207207Y10525455D01*
X3208020Y10529214D01*
X3210204Y10532465D01*
X3227933Y10550245D01*
X3231235Y10552430D01*
X3235147Y10553192D01*
X3466592Y10553192D01*
X3474618Y10554004D01*
X3481882Y10556189D01*
X3488537Y10559745D01*
X3494735Y10564876D01*
X3621074Y10691164D01*
X3626154Y10697362D01*
X3629710Y10704068D01*
X3631895Y10711281D01*
X3632708Y10719308D01*
X3632708Y10934192D01*
X3631946Y10942218D01*
X3629710Y10949482D01*
X3626154Y10956137D01*
X3621074Y10962335D01*
X3583787Y10999622D01*
X3581501Y11003229D01*
X3580841Y11007496D01*
X3582060Y11011611D01*
X3582924Y11013236D01*
X3586022Y11022228D01*
X3587597Y11031575D01*
X3587597Y11041024D01*
X3586987Y11044529D01*
X3587140Y11048695D01*
X3588969Y11052403D01*
X3592169Y11055146D01*
X3596132Y11056315D01*
X3603904Y11057026D01*
X3613353Y11059566D01*
X3622294Y11063681D01*
X3630320Y11069320D01*
X3637279Y11076279D01*
X3642918Y11084306D01*
X3647033Y11093246D01*
X3649573Y11102695D01*
X3650437Y11112500D01*
X3649573Y11122304D01*
X3647033Y11131753D01*
X3642918Y11140694D01*
X3637279Y11148720D01*
X3635705Y11150295D01*
X3633470Y11153597D01*
X3632708Y11157508D01*
X3632708Y11168837D01*
X3633317Y11172291D01*
X3634994Y11175288D01*
X3638854Y11179962D01*
X3642410Y11186668D01*
X3644595Y11193881D01*
X3645357Y11201400D01*
X3644595Y11208918D01*
X3642410Y11216132D01*
X3638854Y11222837D01*
X3634079Y11228679D01*
X3628237Y11233454D01*
X3621532Y11237010D01*
X3614318Y11239195D01*
X3606292Y11240008D01*
X3601618Y11240008D01*
X3597706Y11240770D01*
X3594404Y11243005D01*
X3583787Y11253571D01*
X3581450Y11257229D01*
X3580841Y11261496D01*
X3582060Y11265611D01*
X3582924Y11267236D01*
X3586022Y11276228D01*
X3587597Y11285575D01*
X3587597Y11295024D01*
X3586022Y11304371D01*
X3582924Y11313363D01*
X3578453Y11321694D01*
X3572611Y11329162D01*
X3565651Y11335562D01*
X3557727Y11340744D01*
X3549040Y11344554D01*
X3539845Y11346891D01*
X3529990Y11347704D01*
X3516274Y11347704D01*
X3512108Y11348618D01*
X3508654Y11351158D01*
X3506571Y11354917D01*
X3504285Y11362486D01*
X3500729Y11369141D01*
X3495598Y11375390D01*
X3374034Y11496954D01*
X3371850Y11500256D01*
X3371037Y11504117D01*
X3371037Y11616080D01*
X3370326Y11622379D01*
X3368446Y11627866D01*
X3365347Y11632742D01*
X3361283Y11636857D01*
X3356356Y11639956D01*
X3350920Y11641836D01*
X3344570Y11642547D01*
X3224987Y11642547D01*
X3218637Y11641836D01*
X3213201Y11639956D01*
X3208274Y11636857D01*
X3204210Y11632742D01*
X3201111Y11627866D01*
X3199180Y11622379D01*
X3198469Y11616080D01*
X3198469Y11447119D01*
X3199180Y11440820D01*
X3201111Y11435334D01*
X3204210Y11430457D01*
X3208274Y11426342D01*
X3213201Y11423243D01*
X3218637Y11421364D01*
X3224987Y11420652D01*
X3336950Y11420652D01*
X3340811Y11419890D01*
X3344113Y11417655D01*
X3398723Y11363045D01*
X3401009Y11359489D01*
X3401669Y11355273D01*
X3400551Y11351209D01*
X3397859Y11347907D01*
X3394049Y11346027D01*
X3388258Y11344554D01*
X3379571Y11340744D01*
X3371646Y11335562D01*
X3364687Y11329162D01*
X3358845Y11321694D01*
X3354374Y11313363D01*
X3351276Y11304371D01*
X3349701Y11295024D01*
X3349701Y11285575D01*
X3351276Y11276228D01*
X3354374Y11267236D01*
X3358845Y11258905D01*
X3364687Y11251438D01*
X3371646Y11245037D01*
X3379571Y11239855D01*
X3388106Y11236096D01*
X3391306Y11233861D01*
X3393440Y11230610D01*
X3394201Y11226800D01*
X3393440Y11222990D01*
X3391306Y11219738D01*
X3388106Y11217503D01*
X3379571Y11213744D01*
X3375558Y11211102D01*
X3372358Y11209731D01*
X3368954Y11209528D01*
X3365601Y11210442D01*
X3362807Y11212423D01*
X3078276Y11496954D01*
X3076092Y11500256D01*
X3075330Y11504117D01*
X3075330Y11616080D01*
X3074619Y11622379D01*
X3072688Y11627866D01*
X3069590Y11632742D01*
X3065526Y11636857D01*
X3060598Y11639956D01*
X3055162Y11641836D01*
X3048812Y11642547D01*
X2929229Y11642547D01*
X2922879Y11641836D01*
X2917444Y11639956D01*
X2912516Y11636857D01*
X2911348Y11635638D01*
X2908046Y11633454D01*
X2904134Y11632692D01*
X2900273Y11633454D01*
X2896971Y11635638D01*
X2843834Y11688775D01*
X2841701Y11691874D01*
X2840837Y11695531D01*
X2841396Y11699240D01*
X2844241Y11707723D01*
X2846933Y11721134D01*
X2847848Y11734800D01*
X2846933Y11748465D01*
X2844241Y11761876D01*
X2839872Y11774830D01*
X2833827Y11787124D01*
X2826207Y11798503D01*
X2817164Y11808764D01*
X2806903Y11817807D01*
X2795524Y11825427D01*
X2783230Y11831472D01*
X2770276Y11835841D01*
X2756865Y11838533D01*
X2743200Y11839448D01*
X2729534Y11838533D01*
X2716123Y11835841D01*
X2703169Y11831472D01*
X2690876Y11825427D01*
X2679496Y11817807D01*
X2669235Y11808764D01*
X2660192Y11798503D01*
X2652572Y11787124D01*
X2646527Y11774830D01*
X2642158Y11761876D01*
X2639466Y11748465D01*
X2638552Y11734800D01*
X2639466Y11721134D01*
X2642158Y11707723D01*
X2646527Y11694769D01*
X2652572Y11682476D01*
X2660192Y11671096D01*
X2669235Y11660835D01*
X2679496Y11651792D01*
X2690876Y11644172D01*
X2703169Y11638127D01*
X2716123Y11633758D01*
X2721914Y11632590D01*
X2725724Y11630964D01*
X2728569Y11628018D01*
X2729992Y11624157D01*
X2729738Y11620042D01*
X2727909Y11616334D01*
X2724759Y11613692D01*
X2711246Y11609933D01*
X2702306Y11605818D01*
X2694279Y11600180D01*
X2692704Y11598605D01*
X2689402Y11596370D01*
X2685491Y11595608D01*
X2451608Y11595608D01*
X2443581Y11594795D01*
X2436368Y11592610D01*
X2429662Y11589054D01*
X2423464Y11583924D01*
X2417521Y11578031D01*
X2414625Y11575999D01*
X2411222Y11575084D01*
X2403195Y11574373D01*
X2393746Y11571833D01*
X2384806Y11567718D01*
X2376779Y11562080D01*
X2369820Y11555120D01*
X2364181Y11547094D01*
X2360066Y11538153D01*
X2357526Y11528704D01*
X2356662Y11518900D01*
X2357424Y11509908D01*
X2356967Y11505793D01*
X2354884Y11502237D01*
X2351633Y11499799D01*
X2347264Y11497767D01*
X2342184Y11494211D01*
X2338933Y11492687D01*
X2335326Y11492433D01*
X2332532Y11492738D01*
X2320798Y11493093D01*
X2309520Y11491772D01*
X2305202Y11490960D01*
X2290216Y11490960D01*
X2289606Y11487607D01*
X2287981Y11484660D01*
X2285492Y11482425D01*
X2278684Y11478056D01*
X2270099Y11470640D01*
X2262784Y11461953D01*
X2257145Y11452910D01*
X2254046Y11449761D01*
X2249830Y11448186D01*
X2245410Y11448592D01*
X2241550Y11450878D01*
X2239060Y11454587D01*
X2236978Y11459870D01*
X2231339Y11469674D01*
X2226208Y11476075D01*
X2224582Y11479022D01*
X2224024Y11482425D01*
X2224024Y11490960D01*
X2212187Y11490960D01*
X2207717Y11491976D01*
X2196287Y11497564D01*
X2185517Y11500916D01*
X2174290Y11502593D01*
X2162962Y11502593D01*
X2151735Y11500916D01*
X2140915Y11497564D01*
X2130704Y11492636D01*
X2121306Y11486235D01*
X2113026Y11478514D01*
X2105914Y11469674D01*
X2101900Y11462664D01*
X2099106Y11459565D01*
X2095347Y11457838D01*
X2091182Y11457736D01*
X2087372Y11459362D01*
X2083816Y11463426D01*
X2079701Y11467490D01*
X2074824Y11470589D01*
X2069338Y11472519D01*
X2063038Y11473230D01*
X2013000Y11473230D01*
X2009089Y11473992D01*
X2005787Y11476177D01*
X1999894Y11482070D01*
X1997862Y11484965D01*
X1996948Y11488369D01*
X1997252Y11491874D01*
X1998776Y11495074D01*
X2004618Y11503406D01*
X2008733Y11512346D01*
X2011273Y11521795D01*
X2012137Y11531600D01*
X2011273Y11541404D01*
X2008733Y11550853D01*
X2004618Y11559794D01*
X1998980Y11567820D01*
X1992020Y11574780D01*
X1983993Y11580418D01*
X1975053Y11584533D01*
X1965604Y11587073D01*
X1955800Y11587937D01*
X1945995Y11587073D01*
X1936546Y11584533D01*
X1927606Y11580418D01*
X1919579Y11574780D01*
X1912620Y11567820D01*
X1906981Y11559794D01*
X1902866Y11550853D01*
X1900326Y11541404D01*
X1899462Y11531600D01*
X1900326Y11521795D01*
X1902866Y11512346D01*
X1906981Y11503406D01*
X1912620Y11495379D01*
X1914194Y11493804D01*
X1916430Y11490502D01*
X1917192Y11486591D01*
X1917192Y11472113D01*
X1918004Y11464086D01*
X1920189Y11456822D01*
X1923745Y11450167D01*
X1928368Y11444528D01*
X1930095Y11441480D01*
X1930704Y11438077D01*
X1930704Y11387886D01*
X1931416Y11381536D01*
X1932279Y11379098D01*
X1932787Y11374628D01*
X1931365Y11370411D01*
X1928266Y11367211D01*
X1923440Y11364061D01*
X1916734Y11358524D01*
X1849475Y11291265D01*
X1842414Y11282426D01*
X1837791Y11274806D01*
X1836674Y11272621D01*
X1833270Y11264392D01*
X1832508Y11262055D01*
X1830374Y11253419D01*
X1829968Y11250980D01*
X1829155Y11242141D01*
X1829155Y10462158D01*
X1829968Y10453319D01*
X1830374Y10450880D01*
X1832508Y10442244D01*
X1833270Y10439908D01*
X1836674Y10431678D01*
X1837791Y10429494D01*
X1842414Y10421874D01*
X1849475Y10413034D01*
X2196134Y10066375D01*
X2204974Y10059314D01*
X2212594Y10054691D01*
X2214778Y10053574D01*
X2223008Y10050170D01*
X2225344Y10049408D01*
X2233980Y10047274D01*
X2236419Y10046868D01*
X2245258Y10046055D01*
X2463292Y10046004D01*
X2467203Y10045242D01*
X2470454Y10043007D01*
X2472690Y10039705D01*
X2473452Y10035844D01*
X2473452Y10018318D01*
X2474163Y10012019D01*
X2476093Y10006533D01*
X2479141Y10001656D01*
X2483256Y9997541D01*
X2488133Y9994493D01*
X2493619Y9992563D01*
G37*
G36*
X2525776Y10278770D02*
G01*
X2550922Y10278770D01*
X2557272Y10279481D01*
X2562707Y10281412D01*
X2567635Y10284510D01*
X2571699Y10288574D01*
X2574798Y10293502D01*
X2576677Y10298938D01*
X2577388Y10305288D01*
X2577388Y10384739D01*
X2525776Y10384739D01*
G37*
G36*
X2423820Y10278770D02*
G01*
X2448966Y10278770D01*
X2448966Y10384739D01*
X2397353Y10384739D01*
X2397353Y10305288D01*
X2398064Y10298938D01*
X2399944Y10293502D01*
X2403043Y10288574D01*
X2407158Y10284510D01*
X2412034Y10281412D01*
X2417521Y10279481D01*
G37*
G36*
X3363569Y10344962D02*
G01*
X3399180Y10344962D01*
X3405479Y10345674D01*
X3410965Y10347553D01*
X3415842Y10350652D01*
X3419957Y10354716D01*
X3423056Y10359644D01*
X3424936Y10365079D01*
X3425647Y10371429D01*
X3425647Y10394696D01*
X3363569Y10394696D01*
G37*
G36*
X3363569Y10467746D02*
G01*
X3425647Y10467746D01*
X3425647Y10491012D01*
X3424936Y10497362D01*
X3423056Y10502798D01*
X3419957Y10507726D01*
X3415842Y10511790D01*
X3410965Y10514888D01*
X3405479Y10516819D01*
X3399180Y10517530D01*
X3363569Y10517530D01*
G37*
G36*
X2525776Y10570260D02*
G01*
X2577388Y10570260D01*
X2577388Y10649712D01*
X2576677Y10656062D01*
X2574798Y10661497D01*
X2571699Y10666425D01*
X2567635Y10670489D01*
X2562707Y10673588D01*
X2557272Y10675518D01*
X2550922Y10676229D01*
X2525776Y10676229D01*
G37*
G36*
X2397353Y10570260D02*
G01*
X2448966Y10570260D01*
X2448966Y10676229D01*
X2423820Y10676229D01*
X2417521Y10675518D01*
X2412034Y10673588D01*
X2407158Y10670489D01*
X2403043Y10666425D01*
X2399944Y10661497D01*
X2398064Y10656062D01*
X2397353Y10649712D01*
G37*
G36*
X2264054Y10976610D02*
G01*
X2279650Y10976610D01*
X2285949Y10977321D01*
X2291435Y10979200D01*
X2296312Y10982299D01*
X2300427Y10986414D01*
X2303475Y10991291D01*
X2305405Y10996777D01*
X2306116Y11003076D01*
X2306116Y11016183D01*
X2264054Y11016183D01*
G37*
G36*
X2177694Y11533632D02*
G01*
X2224024Y11533632D01*
X2224024Y11568226D01*
X2204161Y11568226D01*
X2197862Y11567515D01*
X2192375Y11565585D01*
X2187498Y11562486D01*
X2183384Y11558422D01*
X2180336Y11553494D01*
X2178405Y11548059D01*
X2177694Y11541709D01*
G37*
G36*
X2290216Y11533632D02*
G01*
X2336495Y11533632D01*
X2336495Y11541709D01*
X2335784Y11548059D01*
X2333904Y11553494D01*
X2330805Y11558422D01*
X2326690Y11562486D01*
X2321814Y11565585D01*
X2316327Y11567515D01*
X2310028Y11568226D01*
X2290216Y11568226D01*
G37*
G36*
X2534920Y11630152D02*
G01*
X2567381Y11630152D01*
X2573680Y11630863D01*
X2579166Y11632793D01*
X2584043Y11635841D01*
X2588158Y11639956D01*
X2591206Y11644833D01*
X2593136Y11650319D01*
X2593848Y11656618D01*
X2593848Y11689080D01*
X2534920Y11689080D01*
G37*
G36*
X2411018Y11630152D02*
G01*
X2443480Y11630152D01*
X2443480Y11689080D01*
X2384552Y11689080D01*
X2384552Y11656618D01*
X2385263Y11650319D01*
X2387193Y11644833D01*
X2390241Y11639956D01*
X2394356Y11635841D01*
X2399233Y11632793D01*
X2404719Y11630863D01*
G37*
G36*
X2534920Y11780520D02*
G01*
X2593848Y11780520D01*
X2593848Y11812981D01*
X2593136Y11819280D01*
X2591206Y11824766D01*
X2588158Y11829643D01*
X2584043Y11833758D01*
X2579166Y11836806D01*
X2573680Y11838736D01*
X2567381Y11839448D01*
X2534920Y11839448D01*
G37*
G36*
X2384552Y11780520D02*
G01*
X2443480Y11780520D01*
X2443480Y11839448D01*
X2411018Y11839448D01*
X2404719Y11838736D01*
X2399233Y11836806D01*
X2394356Y11833758D01*
X2390241Y11829643D01*
X2387193Y11824766D01*
X2385263Y11819280D01*
X2384552Y11812981D01*
G37*

%LPD*%
G36*
X3192068Y10661751D02*
G01*
X3188004Y10663275D01*
X3180842Y10670489D01*
X3175965Y10673588D01*
X3170478Y10675518D01*
X3164179Y10676229D01*
X3037078Y10676229D01*
X3030728Y10675518D01*
X3025292Y10673588D01*
X3020822Y10671454D01*
X3017418Y10671251D01*
X3014116Y10672216D01*
X3011373Y10674146D01*
X2849524Y10836097D01*
X2847187Y10839805D01*
X2846578Y10844123D01*
X2847898Y10848340D01*
X2850794Y10851591D01*
X2854858Y10853267D01*
X2859227Y10853166D01*
X2860954Y10852708D01*
X2870809Y10851896D01*
X2993491Y10851896D01*
X3003346Y10852708D01*
X3012541Y10855045D01*
X3021228Y10858855D01*
X3029153Y10864037D01*
X3036112Y10870438D01*
X3041954Y10877905D01*
X3046425Y10886236D01*
X3049524Y10895228D01*
X3051098Y10904575D01*
X3051098Y10914024D01*
X3049524Y10923371D01*
X3046425Y10932363D01*
X3041954Y10940694D01*
X3036112Y10948162D01*
X3029153Y10954562D01*
X3021228Y10959744D01*
X3012694Y10963503D01*
X3009493Y10965738D01*
X3007360Y10968990D01*
X3006598Y10972800D01*
X3007360Y10976610D01*
X3009493Y10979861D01*
X3012694Y10982096D01*
X3021228Y10985855D01*
X3029153Y10991037D01*
X3036112Y10997438D01*
X3041954Y11004905D01*
X3046425Y11013236D01*
X3049524Y11022228D01*
X3051098Y11031575D01*
X3051098Y11041024D01*
X3049524Y11050371D01*
X3046425Y11059363D01*
X3041954Y11067694D01*
X3036112Y11075162D01*
X3029153Y11081562D01*
X3021228Y11086744D01*
X3012694Y11090503D01*
X3009493Y11092738D01*
X3007360Y11095990D01*
X3006598Y11099800D01*
X3007360Y11103610D01*
X3009493Y11106861D01*
X3012694Y11109096D01*
X3021228Y11112855D01*
X3029153Y11118037D01*
X3036112Y11124438D01*
X3041954Y11131905D01*
X3046425Y11140236D01*
X3049524Y11149228D01*
X3051098Y11158575D01*
X3051098Y11168024D01*
X3049524Y11177371D01*
X3046425Y11186363D01*
X3041954Y11194694D01*
X3036112Y11202162D01*
X3029153Y11208562D01*
X3021228Y11213744D01*
X3012694Y11217503D01*
X3009493Y11219738D01*
X3007360Y11222990D01*
X3006598Y11226800D01*
X3007360Y11230610D01*
X3009493Y11233861D01*
X3012694Y11236096D01*
X3021228Y11239855D01*
X3029153Y11245037D01*
X3036112Y11251438D01*
X3041954Y11258905D01*
X3046425Y11267236D01*
X3049524Y11276228D01*
X3051098Y11285575D01*
X3051098Y11295024D01*
X3049524Y11304371D01*
X3046425Y11313363D01*
X3041954Y11321694D01*
X3036112Y11329162D01*
X3029153Y11335562D01*
X3021228Y11340744D01*
X3012541Y11344554D01*
X3003346Y11346891D01*
X2993491Y11347704D01*
X2870809Y11347704D01*
X2860954Y11346891D01*
X2851759Y11344554D01*
X2842615Y11340439D01*
X2838754Y11338915D01*
X2834640Y11339068D01*
X2830931Y11340846D01*
X2828239Y11343944D01*
X2826969Y11347856D01*
X2827324Y11351920D01*
X2829864Y11360150D01*
X2831592Y11371376D01*
X2831592Y11382705D01*
X2830474Y11389918D01*
X2830677Y11393830D01*
X2832303Y11397386D01*
X2835198Y11400078D01*
X2838856Y11401450D01*
X2842768Y11401348D01*
X2846374Y11399774D01*
X2854706Y11393881D01*
X2863646Y11389766D01*
X2873095Y11387226D01*
X2882900Y11386362D01*
X2892704Y11387226D01*
X2902153Y11389766D01*
X2911094Y11393881D01*
X2919120Y11399520D01*
X2926080Y11406479D01*
X2934055Y11417858D01*
X2937256Y11419941D01*
X2941015Y11420652D01*
X3041192Y11420652D01*
X3045053Y11419890D01*
X3048355Y11417655D01*
X3316122Y11149888D01*
X3318357Y11146586D01*
X3319119Y11142726D01*
X3318357Y11138814D01*
X3316122Y11135512D01*
X3305454Y11124844D01*
X3301288Y11119916D01*
X3297428Y11113312D01*
X3294938Y11106150D01*
X3293872Y11098174D01*
X3283915Y10823041D01*
X3283051Y10819282D01*
X3280816Y10816082D01*
X3277565Y10813999D01*
X3273755Y10813237D01*
X3230219Y10813237D01*
X3223920Y10812526D01*
X3218434Y10810646D01*
X3213557Y10807547D01*
X3209442Y10803483D01*
X3206343Y10798556D01*
X3204464Y10793120D01*
X3203752Y10786770D01*
X3203752Y10671810D01*
X3202838Y10667542D01*
X3200196Y10664088D01*
X3196386Y10662005D01*
G37*

%LPD*%
G36*
X3424428Y10630408D02*
G01*
X3420516Y10631170D01*
X3417214Y10633405D01*
X3415029Y10636707D01*
X3414268Y10640568D01*
X3415029Y10644479D01*
X3417214Y10647781D01*
X3419957Y10650474D01*
X3423056Y10655401D01*
X3424936Y10660837D01*
X3425647Y10667187D01*
X3425647Y10786770D01*
X3424936Y10793120D01*
X3423056Y10798556D01*
X3419957Y10803483D01*
X3415842Y10807547D01*
X3410965Y10810646D01*
X3405479Y10812526D01*
X3399180Y10813237D01*
X3371342Y10813237D01*
X3367379Y10814050D01*
X3364026Y10816386D01*
X3361842Y10819790D01*
X3361182Y10823803D01*
X3362198Y10851794D01*
X3363264Y10855909D01*
X3365906Y10859262D01*
X3369665Y10861243D01*
X3373932Y10861446D01*
X3377946Y10859922D01*
X3379571Y10858855D01*
X3388258Y10855045D01*
X3397453Y10852708D01*
X3407308Y10851896D01*
X3415690Y10851896D01*
X3415690Y10887202D01*
X3374034Y10887202D01*
X3370072Y10888014D01*
X3366719Y10890300D01*
X3364534Y10893704D01*
X3363874Y10897717D01*
X3364737Y10921593D01*
X3365601Y10925403D01*
X3367836Y10928553D01*
X3371087Y10930636D01*
X3374898Y10931398D01*
X3415690Y10931398D01*
X3415690Y10968736D01*
X3416452Y10972596D01*
X3418636Y10975898D01*
X3421938Y10978134D01*
X3425850Y10978896D01*
X3491128Y10978896D01*
X3494989Y10978134D01*
X3498291Y10975898D01*
X3518662Y10955578D01*
X3520846Y10952276D01*
X3521608Y10948365D01*
X3521608Y10931398D01*
X3538626Y10931398D01*
X3542487Y10930636D01*
X3545789Y10928400D01*
X3552494Y10921695D01*
X3554729Y10918393D01*
X3555492Y10914532D01*
X3555492Y10897362D01*
X3554729Y10893450D01*
X3552494Y10890199D01*
X3549243Y10887964D01*
X3545332Y10887202D01*
X3521608Y10887202D01*
X3521608Y10851896D01*
X3529990Y10851896D01*
X3539845Y10852708D01*
X3542842Y10853470D01*
X3546500Y10853724D01*
X3550005Y10852658D01*
X3552901Y10850372D01*
X3554831Y10847222D01*
X3555492Y10843615D01*
X3555492Y10739018D01*
X3554729Y10735106D01*
X3552494Y10731804D01*
X3454095Y10633405D01*
X3450793Y10631170D01*
X3446881Y10630408D01*
G37*

%LPD*%
D10*
X2235200Y11042497D02*
G01*
X2432202Y11042497D01*
X2438400Y11036300D01*
X2257120Y11322304D02*
G01*
X2235200Y11300383D01*
X2235200Y11182502D01*
X3468649Y11163300D02*
G01*
X3357321Y11163300D01*
X2989021Y11531600D01*
X3284778Y11531600D02*
G01*
X3468649Y11347729D01*
X3468649Y11290300D01*
X3100626Y10477502D02*
G01*
X3214938Y10591807D01*
X3467102Y10591807D01*
X3594102Y10718807D01*
X3594102Y10934707D01*
X3492515Y11036302D01*
X3468651Y11036302D01*
X2273300Y10744200D02*
G01*
X2351659Y10822559D01*
X2374902Y10822559D01*
X2413000Y11518900D02*
G01*
X2451100Y11557000D01*
X2730500Y11557000D01*
D11*
X2578100Y10096500D02*
G01*
X2552700Y10121900D01*
X2451100Y10121900D01*
X3100577Y10477500D02*
G01*
X2755900Y10822431D01*
X2755902Y10822559D02*
G01*
X2628902Y10822559D01*
X2628902Y10822559D02*
G01*
X2501902Y10822559D01*
X2324100Y11417300D02*
G01*
X2336038Y11416029D01*
X2342895Y11409171D01*
X2469895Y11409171D01*
X2501900Y11377168D01*
X2501902Y11377040D02*
G01*
X2628902Y11377040D01*
X2628902Y11377040D02*
G01*
X2755902Y11377040D01*
X2487371Y10477500D02*
G01*
X2398471Y10388600D01*
X2260600Y10388600D01*
D10*
X3468624Y11290300D02*
G01*
X3492500Y11290300D01*
X3581400Y11201400D01*
X3606800Y11201400D01*
X3594100Y11188700D01*
X3594100Y11112500D01*
X2257102Y11322304D02*
G01*
X2505006Y11074400D01*
X2603500Y11074400D01*
X2932175Y11290300D02*
G01*
X2933700Y11226800D01*
X2844800Y11226800D01*
X2806700Y11188700D01*
X2806700Y11074400D01*
D11*
X2451100Y10121900D02*
G01*
X2247900Y10121900D01*
X1905000Y10464800D01*
X1905000Y11239500D01*
X1968500Y11303000D01*
X2095500Y11303000D01*
X2138177Y11345669D01*
X2138177Y11371069D01*
X2171700Y11404594D01*
X2171700Y11417300D01*
X2168624Y11420375D01*
X2168624Y11426924D01*
D10*
X2882900Y11442700D02*
G01*
X2882900Y11595100D01*
X2743200Y11734800D01*
X2010092Y11417300D02*
G01*
X1955800Y11471592D01*
X1955800Y11531600D01*
X3314702Y10726981D02*
G01*
X3319216Y10731502D01*
X3332479Y11097260D01*
X3468651Y11163300D02*
G01*
X3398497Y11163300D01*
X3332479Y11097260D01*
D13*
X3406899Y11290300D02*
G01*
X3530399Y11290300D01*
X3406899Y11163300D02*
G01*
X3530399Y11163300D01*
X3406899Y11036300D02*
G01*
X3530399Y11036300D01*
X3406899Y10909300D02*
G01*
X3530399Y10909300D01*
X2870400Y11290300D02*
G01*
X2993900Y11290300D01*
X2870400Y11163300D02*
G01*
X2993900Y11163300D01*
X2870400Y11036300D02*
G01*
X2993900Y11036300D01*
X2870400Y10909300D02*
G01*
X2993900Y10909300D01*
D24*
X2755900Y10895408D02*
G01*
X2755900Y10749709D01*
X2628900Y10895408D02*
G01*
X2628900Y10749709D01*
X2501900Y10895408D02*
G01*
X2501900Y10749709D01*
X2374900Y10895408D02*
G01*
X2374900Y10749709D01*
X2755900Y11449890D02*
G01*
X2755900Y11304191D01*
X2628900Y11449890D02*
G01*
X2628900Y11304191D01*
X2501900Y11449890D02*
G01*
X2501900Y11304191D01*
X2374900Y11449890D02*
G01*
X2374900Y11304191D01*
G36*
X2190198Y11082500D02*
G01*
X2190198Y11002500D01*
X2280201Y11002500D01*
X2280201Y11082500D01*
G37*
G36*
X2190198Y11222499D02*
G01*
X2190198Y11142499D01*
X2280201Y11142499D01*
X2280201Y11222499D01*
G37*
D26*
G01*
X3314700Y10726978D03*
G36*
X3229650Y10491599D02*
G01*
X3399749Y10491599D01*
X3399749Y10370847D01*
X3229650Y10370847D01*
G37*
G36*
X3224400Y11616649D02*
G01*
X3224400Y11446550D01*
X3345152Y11446550D01*
X3345152Y11616649D01*
G37*
G36*
X3049399Y11616649D02*
G01*
X3049399Y11446550D01*
X2928647Y11446550D01*
X2928647Y11616649D01*
G37*
G36*
X3036498Y10650298D02*
G01*
X3036498Y10304701D01*
X3164753Y10304701D01*
X3164753Y10650298D01*
G37*
G36*
X2551501Y10650298D02*
G01*
X2551501Y10304701D01*
X2423246Y10304701D01*
X2423246Y10650298D01*
G37*
G36*
X2203612Y11482296D02*
G01*
X2310612Y11482296D01*
X2310612Y11542295D01*
X2203612Y11542295D01*
G37*
G36*
X2203612Y11292304D02*
G01*
X2310612Y11292304D01*
X2310612Y11352303D01*
X2203612Y11352303D01*
G37*
G36*
X1956612Y11387300D02*
G01*
X2063612Y11387300D01*
X2063612Y11447299D01*
X1956612Y11447299D01*
G37*
D21*
G01*
X2489200Y11734800D03*
D22*
G01*
X2743200Y11734800D03*
D21*
G01*
X2578100Y10096500D03*
D22*
G01*
X2832100Y10096500D03*
D23*
G01*
X2070100Y11036300D03*
G01*
X2070100Y10782300D03*
G01*
X2070100Y10528300D03*
D14*
G01*
X2273300Y10744200D03*
G01*
X2413000Y11518900D03*
G01*
X2730500Y11557000D03*
G01*
X2171700Y11417300D03*
G01*
X2324100Y11417300D03*
G01*
X2260600Y10388600D03*
G01*
X3594100Y11112500D03*
G01*
X3340100Y10426700D03*
G01*
X3429000Y10909300D03*
G01*
X2400300Y10591800D03*
G01*
X2489200Y10591800D03*
G01*
X2438400Y11036300D03*
G01*
X3162300Y11176000D03*
G01*
X3479800Y10731500D03*
G01*
X3149600Y11036300D03*
G01*
X2603500Y11074400D03*
G01*
X2806700Y11074400D03*
G01*
X2882900Y11442700D03*
G01*
X1955800Y11531600D03*
G01*
X3168370Y11660124D03*
M02*
