G04 Layer: BottomSilkscreenLayer*
G04 EasyEDA v6.4.31, 2022-04-13 09:50:49*
G04 15e1e23020854c049c4cbe606706b0dd,9d3d63f08f7d425b882531a970cedf0e,10*
G04 Gerber Generator version 0.2*
G04 Scale: 100 percent, Rotated: No, Reflected: No *
G04 Dimensions in millimeters *
G04 leading zeros omitted , absolute positions ,4 integer and 5 decimal *
%FSLAX45Y45*%
%MOMM*%

%ADD10C,0.2540*%
%ADD29C,0.1524*%
%ADD31C,0.3000*%

%LPD*%
D29*
X2183891Y10869421D02*
G01*
X2173477Y10874755D01*
X2163063Y10885170D01*
X2157984Y10895329D01*
X2157984Y10916158D01*
X2163063Y10926571D01*
X2173477Y10936986D01*
X2183891Y10942320D01*
X2199640Y10947400D01*
X2225547Y10947400D01*
X2241041Y10942320D01*
X2251456Y10936986D01*
X2261870Y10926571D01*
X2266950Y10916158D01*
X2266950Y10895329D01*
X2261870Y10885170D01*
X2251456Y10874755D01*
X2241041Y10869421D01*
X2157984Y10824718D02*
G01*
X2157984Y10767568D01*
X2199640Y10798810D01*
X2199640Y10783315D01*
X2204720Y10772902D01*
X2209800Y10767568D01*
X2225547Y10762487D01*
X2235961Y10762487D01*
X2251456Y10767568D01*
X2261870Y10777981D01*
X2266950Y10793729D01*
X2266950Y10809224D01*
X2261870Y10824718D01*
X2256790Y10830052D01*
X2246375Y10835131D01*
X3364991Y10528272D02*
G01*
X3293363Y10528272D01*
X3364991Y10528272D02*
G01*
X3364991Y10559006D01*
X3361690Y10569166D01*
X3358134Y10572722D01*
X3351275Y10576024D01*
X3344418Y10576024D01*
X3337813Y10572722D01*
X3334258Y10569166D01*
X3330956Y10559006D01*
X3330956Y10528272D01*
X3330956Y10552148D02*
G01*
X3293363Y10576024D01*
X3347974Y10601932D02*
G01*
X3351275Y10601932D01*
X3358134Y10605234D01*
X3361690Y10608790D01*
X3364991Y10615648D01*
X3364991Y10629110D01*
X3361690Y10635968D01*
X3358134Y10639524D01*
X3351275Y10642826D01*
X3344418Y10642826D01*
X3337813Y10639524D01*
X3327400Y10632666D01*
X3293363Y10598630D01*
X3293363Y10646128D01*
X3086100Y11506708D02*
G01*
X3086100Y11578336D01*
X3086100Y11506708D02*
G01*
X3116834Y11506708D01*
X3126993Y11510010D01*
X3130295Y11513565D01*
X3133852Y11520424D01*
X3133852Y11527281D01*
X3130295Y11533886D01*
X3126993Y11537442D01*
X3116834Y11540744D01*
X3086100Y11540744D01*
X3109975Y11540744D02*
G01*
X3133852Y11578336D01*
X3163061Y11506708D02*
G01*
X3200654Y11506708D01*
X3180079Y11533886D01*
X3190493Y11533886D01*
X3197352Y11537442D01*
X3200654Y11540744D01*
X3203956Y11551158D01*
X3203956Y11557762D01*
X3200654Y11568176D01*
X3193795Y11574779D01*
X3183636Y11578336D01*
X3173475Y11578336D01*
X3163061Y11574779D01*
X3159759Y11571478D01*
X3156204Y11564620D01*
X2603500Y10425684D02*
G01*
X2603500Y10534650D01*
X2603500Y10425684D02*
G01*
X2650236Y10425684D01*
X2665729Y10430763D01*
X2671063Y10436097D01*
X2676143Y10446512D01*
X2676143Y10456926D01*
X2671063Y10467339D01*
X2665729Y10472420D01*
X2650236Y10477500D01*
X2603500Y10477500D01*
X2639822Y10477500D02*
G01*
X2676143Y10534650D01*
X2783331Y10441178D02*
G01*
X2772918Y10430763D01*
X2757170Y10425684D01*
X2736595Y10425684D01*
X2720847Y10430763D01*
X2710434Y10441178D01*
X2710434Y10451592D01*
X2715768Y10462005D01*
X2720847Y10467339D01*
X2731261Y10472420D01*
X2762504Y10482834D01*
X2772918Y10487913D01*
X2777997Y10493247D01*
X2783331Y10503662D01*
X2783331Y10519155D01*
X2772918Y10529570D01*
X2757170Y10534650D01*
X2736595Y10534650D01*
X2720847Y10529570D01*
X2710434Y10519155D01*
X2817622Y10425684D02*
G01*
X2817622Y10534650D01*
X2817622Y10425684D02*
G01*
X2890265Y10534650D01*
X2890265Y10425684D02*
G01*
X2890265Y10534650D01*
X2997200Y10441178D02*
G01*
X2987040Y10430763D01*
X2971291Y10425684D01*
X2950463Y10425684D01*
X2934970Y10430763D01*
X2924556Y10441178D01*
X2924556Y10451592D01*
X2929890Y10462005D01*
X2934970Y10467339D01*
X2945384Y10472420D01*
X2976625Y10482834D01*
X2987040Y10487913D01*
X2992120Y10493247D01*
X2997200Y10503662D01*
X2997200Y10519155D01*
X2987040Y10529570D01*
X2971291Y10534650D01*
X2950463Y10534650D01*
X2934970Y10529570D01*
X2924556Y10519155D01*
X3135861Y11226800D02*
G01*
X3244964Y11226800D01*
X3244964Y11226800D02*
G01*
X3244964Y11164455D01*
X3135861Y11130165D02*
G01*
X3244964Y11130165D01*
X3135861Y11130165D02*
G01*
X3244964Y11088601D01*
X3135861Y11047036D02*
G01*
X3244964Y11088601D01*
X3135861Y11047036D02*
G01*
X3244964Y11047036D01*
X3135861Y11002355D02*
G01*
X3135861Y10945205D01*
X3177425Y10976378D01*
X3177425Y10960793D01*
X3182620Y10950402D01*
X3187814Y10945205D01*
X3203402Y10940011D01*
X3213793Y10940011D01*
X3229378Y10945205D01*
X3239770Y10955596D01*
X3244964Y10971184D01*
X3244964Y10986770D01*
X3239770Y11002355D01*
X3234575Y11007552D01*
X3224184Y11012746D01*
X3135861Y10843374D02*
G01*
X3135861Y10895329D01*
X3182620Y10900524D01*
X3177425Y10895329D01*
X3172228Y10879744D01*
X3172228Y10864156D01*
X3177425Y10848571D01*
X3187814Y10838179D01*
X3203402Y10832985D01*
X3213793Y10832985D01*
X3229378Y10838179D01*
X3239770Y10848571D01*
X3244964Y10864156D01*
X3244964Y10879744D01*
X3239770Y10895329D01*
X3234575Y10900524D01*
X3224184Y10905721D01*
X3135861Y10772716D02*
G01*
X3141055Y10788304D01*
X3151446Y10793498D01*
X3161837Y10793498D01*
X3172228Y10788304D01*
X3177425Y10777913D01*
X3182620Y10757131D01*
X3187814Y10741545D01*
X3198205Y10731154D01*
X3208596Y10725957D01*
X3224184Y10725957D01*
X3234575Y10731154D01*
X3239770Y10736348D01*
X3244964Y10751934D01*
X3244964Y10772716D01*
X3239770Y10788304D01*
X3234575Y10793498D01*
X3224184Y10798695D01*
X3208596Y10798695D01*
X3198205Y10793498D01*
X3187814Y10783107D01*
X3182620Y10767522D01*
X3177425Y10746739D01*
X3172228Y10736348D01*
X3161837Y10731154D01*
X3151446Y10731154D01*
X3141055Y10736348D01*
X3135861Y10751934D01*
X3135861Y10772716D01*
X2133600Y11119543D02*
G01*
X2143991Y11114346D01*
X2159576Y11098761D01*
X2159576Y11207864D01*
X2199063Y11124737D02*
G01*
X2199063Y11119543D01*
X2204257Y11109152D01*
X2209454Y11103955D01*
X2219845Y11098761D01*
X2240625Y11098761D01*
X2251016Y11103955D01*
X2256213Y11109152D01*
X2261407Y11119543D01*
X2261407Y11129934D01*
X2256213Y11140325D01*
X2245822Y11155911D01*
X2193866Y11207864D01*
X2266604Y11207864D01*
X2300894Y11098761D02*
G01*
X2342456Y11207864D01*
X2384021Y11098761D02*
G01*
X2342456Y11207864D01*
X2418311Y11098761D02*
G01*
X2418311Y11207864D01*
X2418311Y11098761D02*
G01*
X2465070Y11098761D01*
X2480655Y11103955D01*
X2485852Y11109152D01*
X2491046Y11119543D01*
X2491046Y11129934D01*
X2485852Y11140325D01*
X2480655Y11145520D01*
X2465070Y11150714D01*
X2418311Y11150714D01*
X2454678Y11150714D02*
G01*
X2491046Y11207864D01*
X2525336Y11098761D02*
G01*
X2525336Y11207864D01*
X2525336Y11098761D02*
G01*
X2592877Y11098761D01*
X2525336Y11150714D02*
G01*
X2566901Y11150714D01*
X2525336Y11207864D02*
G01*
X2592877Y11207864D01*
X2705100Y11124737D02*
G01*
X2699905Y11114346D01*
X2689514Y11103955D01*
X2679123Y11098761D01*
X2658341Y11098761D01*
X2647950Y11103955D01*
X2637558Y11114346D01*
X2632364Y11124737D01*
X2627167Y11140325D01*
X2627167Y11166302D01*
X2632364Y11181887D01*
X2637558Y11192278D01*
X2647950Y11202670D01*
X2658341Y11207864D01*
X2679123Y11207864D01*
X2689514Y11202670D01*
X2699905Y11192278D01*
X2705100Y11181887D01*
X2705100Y11166302D01*
X2679123Y11166302D02*
G01*
X2705100Y11166302D01*
X2717800Y11177038D02*
G01*
X2717800Y11067935D01*
X2717800Y11177038D02*
G01*
X2676235Y11067935D01*
X2634673Y11177038D02*
G01*
X2676235Y11067935D01*
X2634673Y11177038D02*
G01*
X2634673Y11067935D01*
X2569209Y11177038D02*
G01*
X2579601Y11171844D01*
X2589992Y11161453D01*
X2595186Y11151062D01*
X2600383Y11135474D01*
X2600383Y11109497D01*
X2595186Y11093912D01*
X2589992Y11083521D01*
X2579601Y11073129D01*
X2569209Y11067935D01*
X2548427Y11067935D01*
X2538036Y11073129D01*
X2527645Y11083521D01*
X2522451Y11093912D01*
X2517254Y11109497D01*
X2517254Y11135474D01*
X2522451Y11151062D01*
X2527645Y11161453D01*
X2538036Y11171844D01*
X2548427Y11177038D01*
X2569209Y11177038D01*
X2410228Y11161453D02*
G01*
X2420620Y11171844D01*
X2436205Y11177038D01*
X2456987Y11177038D01*
X2472575Y11171844D01*
X2482964Y11161453D01*
X2482964Y11151062D01*
X2477770Y11140671D01*
X2472575Y11135474D01*
X2462184Y11130279D01*
X2431011Y11119888D01*
X2420620Y11114694D01*
X2415425Y11109497D01*
X2410228Y11099106D01*
X2410228Y11083521D01*
X2420620Y11073129D01*
X2436205Y11067935D01*
X2456987Y11067935D01*
X2472575Y11073129D01*
X2482964Y11083521D01*
X2375938Y11177038D02*
G01*
X2375938Y11067935D01*
X2375938Y11177038D02*
G01*
X2308397Y11177038D01*
X2375938Y11125085D02*
G01*
X2334374Y11125085D01*
X2274107Y11177038D02*
G01*
X2274107Y11067935D01*
X2274107Y11177038D02*
G01*
X2206566Y11177038D01*
X2274107Y11125085D02*
G01*
X2232545Y11125085D01*
X2274107Y11067935D02*
G01*
X2206566Y11067935D01*
X2135908Y11177038D02*
G01*
X2135908Y11067935D01*
X2172276Y11177038D02*
G01*
X2099541Y11177038D01*
D10*
X2195222Y10973498D02*
G01*
X2275225Y10973498D01*
X2164237Y11084473D02*
G01*
X2164237Y11004476D01*
X2306203Y11084473D02*
G01*
X2306203Y11004476D01*
X2163655Y11142063D02*
G01*
X2163655Y11222062D01*
X2194638Y11253045D02*
G01*
X2274636Y11253045D01*
X2305616Y11142063D02*
G01*
X2305616Y11222062D01*
D29*
X3206790Y10674220D02*
G01*
X3206790Y10810212D01*
X3422609Y10810212D01*
X3422609Y10674220D01*
X3206790Y10483979D02*
G01*
X3206790Y10347987D01*
X3422609Y10347987D01*
X3422609Y10483979D01*
X3232020Y11639509D02*
G01*
X3368012Y11639509D01*
X3368012Y11423690D01*
X3232020Y11423690D01*
X3041779Y11639509D02*
G01*
X2905787Y11639509D01*
X2905787Y11423690D01*
X3041779Y11423690D01*
X3044118Y10673158D02*
G01*
X3187613Y10673158D01*
X3187613Y10281841D01*
X3044118Y10281841D01*
X2543881Y10673158D02*
G01*
X2400386Y10673158D01*
X2400386Y10281841D01*
X2543881Y10281841D01*
X3352540Y11357419D02*
G01*
X3048259Y11357419D01*
X3048259Y10842180D01*
X3352540Y10842180D01*
X3352540Y11357419D01*
X2221219Y11263680D02*
G01*
X2045980Y11263680D01*
X2045980Y11367841D01*
X2221219Y11570919D02*
G01*
X2045980Y11570919D01*
X2045980Y11466758D01*
X2221219Y11371760D02*
G01*
X2221219Y11462839D01*
X2818020Y10947659D02*
G01*
X2818020Y11251940D01*
X2312779Y11251940D01*
X2312779Y10947659D01*
X2818020Y10947659D01*
D10*
G75*
G01*
X2194639Y11253051D02*
G03*
X2163656Y11222068I0J-30983D01*
G75*
G01*
X2305622Y11222068D02*
G03*
X2274636Y11253051I-30983J0D01*
G75*
G01*
X2164237Y11004481D02*
G03*
X2195223Y10973499I30983J0D01*
G75*
G01*
X2275220Y10973499D02*
G03*
X2306203Y11004481I0J30982D01*
D31*
G75*
G01
X3292323Y11290300D02*
G03X3292323Y11290300I-15011J0D01*
G75*
G01
X3483661Y11367033D02*
G03X3483661Y11367033I-15011J0D01*
G75*
G01
X2770911Y11022889D02*
G03X2770911Y11022889I-15011J0D01*
G75*
G01
X2845562Y10822559D02*
G03X2845562Y10822559I-15011J0D01*
M02*
