G04 Layer: TopLayer*
G04 EasyEDA v6.4.31, 2022-04-13 09:50:49*
G04 15e1e23020854c049c4cbe606706b0dd,9d3d63f08f7d425b882531a970cedf0e,10*
G04 Gerber Generator version 0.2*
G04 Scale: 100 percent, Rotated: No, Reflected: No *
G04 Dimensions in millimeters *
G04 leading zeros omitted , absolute positions ,4 integer and 5 decimal *
%FSLAX45Y45*%
%MOMM*%

%ADD10C,0.2540*%
%ADD11C,1.0000*%
%ADD12C,0.5740*%
%ADD13C,0.6300*%
%ADD14C,0.6096*%
%ADD16R,0.5400X0.7901*%
%ADD19R,1.1000X1.2000*%
%ADD21R,1.5748X1.5748*%
%ADD22C,1.5748*%
%ADD23C,1.2400*%

%LPD*%
G36*
X2680716Y9822586D02*
G01*
X2634843Y9824059D01*
X2589022Y9827514D01*
X2543454Y9832898D01*
X2498140Y9840214D01*
X2453182Y9849510D01*
X2408682Y9860686D01*
X2364638Y9873742D01*
X2321255Y9888677D01*
X2278532Y9905441D01*
X2236520Y9924034D01*
X2195423Y9944404D01*
X2155190Y9966553D01*
X2115921Y9990328D01*
X2077720Y10015778D01*
X2040636Y10042855D01*
X2004771Y10071506D01*
X1970125Y10101630D01*
X1936800Y10133228D01*
X1904898Y10166197D01*
X1874418Y10200538D01*
X1845411Y10236098D01*
X1817979Y10272877D01*
X1792122Y10310825D01*
X1767890Y10349839D01*
X1745386Y10389819D01*
X1724609Y10430764D01*
X1705559Y10472572D01*
X1688338Y10515092D01*
X1672945Y10558373D01*
X1659432Y10602214D01*
X1647799Y10646613D01*
X1638096Y10691469D01*
X1630273Y10736732D01*
X1624431Y10782249D01*
X1620520Y10828020D01*
X1618538Y10873841D01*
X1618589Y10919764D01*
X1620520Y10965637D01*
X1624482Y11011357D01*
X1630324Y11056874D01*
X1638147Y11102136D01*
X1647901Y11146993D01*
X1659585Y11191392D01*
X1673098Y11235232D01*
X1688490Y11278514D01*
X1705762Y11321034D01*
X1724761Y11362842D01*
X1745589Y11403736D01*
X1768144Y11443716D01*
X1792325Y11482730D01*
X1818233Y11520678D01*
X1845665Y11557457D01*
X1874672Y11593017D01*
X1905203Y11627307D01*
X1937156Y11660276D01*
X1970481Y11691874D01*
X2005075Y11721998D01*
X2040991Y11750598D01*
X2078075Y11777675D01*
X2116277Y11803075D01*
X2155545Y11826900D01*
X2195779Y11848998D01*
X2236927Y11869318D01*
X2278938Y11887911D01*
X2321661Y11904675D01*
X2365044Y11919610D01*
X2409088Y11932615D01*
X2453589Y11943791D01*
X2498547Y11953036D01*
X2543911Y11960352D01*
X2589479Y11965736D01*
X2635250Y11969140D01*
X2681122Y11970613D01*
X2727045Y11970105D01*
X2772867Y11967667D01*
X2818587Y11963247D01*
X2864053Y11956897D01*
X2909163Y11948566D01*
X2953918Y11938355D01*
X2998216Y11926214D01*
X3041954Y11912193D01*
X3084982Y11896344D01*
X3127349Y11878665D01*
X3168954Y11859158D01*
X3209645Y11837924D01*
X3249371Y11814962D01*
X3288131Y11790324D01*
X3325774Y11764060D01*
X3362248Y11736222D01*
X3397504Y11706809D01*
X3431489Y11675973D01*
X3464102Y11643664D01*
X3495344Y11609984D01*
X3525062Y11575034D01*
X3553307Y11538864D01*
X3579977Y11501475D01*
X3605022Y11462969D01*
X3628390Y11423497D01*
X3650030Y11383010D01*
X3669944Y11341658D01*
X3688079Y11299444D01*
X3704386Y11256568D01*
X3718814Y11212982D01*
X3731412Y11168837D01*
X3742080Y11124184D01*
X3750868Y11079124D01*
X3757676Y11033760D01*
X3762552Y10988090D01*
X3765499Y10942269D01*
X3766464Y10896396D01*
X3765499Y10850473D01*
X3762552Y10804652D01*
X3757625Y10759033D01*
X3750767Y10713618D01*
X3741978Y10668609D01*
X3731310Y10623956D01*
X3718712Y10579811D01*
X3704234Y10536224D01*
X3687876Y10493349D01*
X3669741Y10451185D01*
X3649827Y10409783D01*
X3628136Y10369346D01*
X3604768Y10329824D01*
X3579723Y10291368D01*
X3553053Y10254030D01*
X3524808Y10217810D01*
X3495040Y10182860D01*
X3463798Y10149230D01*
X3431184Y10116921D01*
X3397199Y10086086D01*
X3361893Y10056723D01*
X3325418Y10028885D01*
X3287776Y10002621D01*
X3249015Y9977983D01*
X3209239Y9955072D01*
X3168548Y9933838D01*
X3126994Y9914382D01*
X3084626Y9896703D01*
X3041497Y9880854D01*
X2997809Y9866833D01*
X2953512Y9854742D01*
X2908757Y9844532D01*
X2863596Y9836251D01*
X2818130Y9829901D01*
X2772460Y9825532D01*
X2726588Y9823043D01*
G37*

%LPC*%
G36*
X2499918Y9991852D02*
G01*
X2656281Y9991852D01*
X2662580Y9992563D01*
X2668066Y9994493D01*
X2672943Y9997541D01*
X2677058Y10001656D01*
X2680106Y10006533D01*
X2682036Y10012019D01*
X2682748Y10018318D01*
X2682748Y10174681D01*
X2682036Y10180980D01*
X2680106Y10186466D01*
X2677058Y10191343D01*
X2672943Y10195458D01*
X2668066Y10198506D01*
X2662580Y10200436D01*
X2656281Y10201148D01*
X2499918Y10201148D01*
X2493619Y10200436D01*
X2488133Y10198506D01*
X2483256Y10195458D01*
X2479141Y10191343D01*
X2476093Y10186466D01*
X2474163Y10180980D01*
X2473452Y10174681D01*
X2473452Y10018318D01*
X2474163Y10012019D01*
X2476093Y10006533D01*
X2479141Y10001656D01*
X2483256Y9997541D01*
X2488133Y9994493D01*
X2493619Y9992563D01*
G37*
G36*
X2877820Y10002621D02*
G01*
X2884424Y10005872D01*
X2895803Y10013492D01*
X2906064Y10022535D01*
X2915107Y10032796D01*
X2922727Y10044176D01*
X2925978Y10050780D01*
X2877820Y10050780D01*
G37*
G36*
X2786380Y10002621D02*
G01*
X2786380Y10050780D01*
X2738221Y10050780D01*
X2741472Y10044176D01*
X2749092Y10032796D01*
X2758135Y10022535D01*
X2768396Y10013492D01*
X2779776Y10005872D01*
G37*
G36*
X2738221Y10142220D02*
G01*
X2786380Y10142220D01*
X2786380Y10190378D01*
X2779776Y10187127D01*
X2768396Y10179507D01*
X2758135Y10170464D01*
X2749092Y10160203D01*
X2741472Y10148824D01*
G37*
G36*
X2877820Y10142220D02*
G01*
X2925978Y10142220D01*
X2922727Y10148824D01*
X2915107Y10160203D01*
X2906064Y10170464D01*
X2895803Y10179507D01*
X2884424Y10187127D01*
X2877820Y10190378D01*
G37*
G36*
X3023108Y10197592D02*
G01*
X3149092Y10197592D01*
X3157118Y10198404D01*
X3164332Y10200589D01*
X3171037Y10204145D01*
X3176879Y10208920D01*
X3181654Y10214762D01*
X3185210Y10221468D01*
X3187395Y10228681D01*
X3188055Y10235133D01*
X3189274Y10239044D01*
X3191967Y10242194D01*
X3195726Y10243972D01*
X3199841Y10244124D01*
X3208375Y10242702D01*
X3217824Y10242702D01*
X3227171Y10244277D01*
X3236163Y10247376D01*
X3244494Y10251846D01*
X3251962Y10257688D01*
X3258362Y10264648D01*
X3263544Y10272572D01*
X3267303Y10281107D01*
X3269538Y10284307D01*
X3272790Y10286441D01*
X3276600Y10287203D01*
X3280410Y10286441D01*
X3283661Y10284307D01*
X3285896Y10281107D01*
X3289655Y10272572D01*
X3294837Y10264648D01*
X3301237Y10257688D01*
X3308705Y10251846D01*
X3317036Y10247376D01*
X3326028Y10244277D01*
X3335375Y10242702D01*
X3344824Y10242702D01*
X3354171Y10244277D01*
X3363163Y10247376D01*
X3371494Y10251846D01*
X3378962Y10257688D01*
X3385362Y10264648D01*
X3390544Y10272572D01*
X3394354Y10281259D01*
X3396691Y10290454D01*
X3397504Y10300309D01*
X3397504Y10307523D01*
X3398265Y10311384D01*
X3400501Y10314686D01*
X3535324Y10449560D01*
X3540963Y10456418D01*
X3547008Y10466070D01*
X3548126Y10468254D01*
X3551529Y10476484D01*
X3552291Y10478820D01*
X3554425Y10487406D01*
X3554831Y10489844D01*
X3555644Y10498683D01*
X3555695Y10731144D01*
X3554831Y10742828D01*
X3552291Y10753852D01*
X3548176Y10764418D01*
X3542487Y10774222D01*
X3535426Y10783112D01*
X3527094Y10790834D01*
X3517747Y10797235D01*
X3507536Y10802112D01*
X3496665Y10805464D01*
X3492246Y10806125D01*
X3488080Y10807750D01*
X3485032Y10811002D01*
X3483660Y10815218D01*
X3484219Y10819638D01*
X3486556Y10823397D01*
X3621024Y10957864D01*
X3626154Y10964062D01*
X3629710Y10970768D01*
X3631895Y10977981D01*
X3632708Y10986008D01*
X3632708Y11067491D01*
X3633470Y11071402D01*
X3635705Y11074704D01*
X3637279Y11076279D01*
X3642918Y11084306D01*
X3647033Y11093246D01*
X3649573Y11102695D01*
X3650437Y11112500D01*
X3649573Y11122304D01*
X3647033Y11131753D01*
X3642918Y11140694D01*
X3637279Y11148720D01*
X3630320Y11155680D01*
X3622294Y11161318D01*
X3613353Y11165433D01*
X3603904Y11167973D01*
X3594100Y11168837D01*
X3584295Y11167973D01*
X3574846Y11165433D01*
X3570986Y11163655D01*
X3567023Y11162690D01*
X3563010Y11163350D01*
X3559606Y11165535D01*
X3557320Y11168888D01*
X3556508Y11172850D01*
X3556508Y11429492D01*
X3555695Y11437518D01*
X3553510Y11444732D01*
X3549954Y11451437D01*
X3544824Y11457635D01*
X3509721Y11492738D01*
X3503523Y11497868D01*
X3496818Y11501424D01*
X3489604Y11503609D01*
X3481578Y11504422D01*
X3409238Y11504422D01*
X3405835Y11504980D01*
X3402837Y11506657D01*
X3400602Y11509248D01*
X3396792Y11515445D01*
X3392728Y11519509D01*
X3387851Y11522608D01*
X3382365Y11524488D01*
X3376066Y11525199D01*
X3219704Y11525199D01*
X3213354Y11524488D01*
X3207918Y11522608D01*
X3202990Y11519509D01*
X3198977Y11515445D01*
X3195116Y11509197D01*
X3192881Y11506555D01*
X3189833Y11504879D01*
X3186430Y11504320D01*
X2994406Y11504320D01*
X2990494Y11505082D01*
X2987192Y11507266D01*
X2885135Y11609324D01*
X2878937Y11614454D01*
X2872232Y11618010D01*
X2865018Y11620195D01*
X2856992Y11621008D01*
X2803601Y11621008D01*
X2795574Y11620195D01*
X2788361Y11618010D01*
X2781655Y11614454D01*
X2776982Y11610594D01*
X2773984Y11608917D01*
X2770530Y11608308D01*
X2755544Y11608308D01*
X2751277Y11609273D01*
X2749753Y11609933D01*
X2740304Y11612473D01*
X2730500Y11613337D01*
X2720695Y11612473D01*
X2711246Y11609933D01*
X2702306Y11605818D01*
X2694279Y11600180D01*
X2687320Y11593220D01*
X2681681Y11585194D01*
X2675991Y11573205D01*
X2673959Y11570512D01*
X2671165Y11568633D01*
X2667863Y11567820D01*
X2660853Y11567160D01*
X2656789Y11567668D01*
X2653233Y11569700D01*
X2650794Y11573002D01*
X2649829Y11576964D01*
X2647289Y11658498D01*
X2648000Y11662562D01*
X2650286Y11666016D01*
X2653741Y11668302D01*
X2657805Y11669014D01*
X2661767Y11667998D01*
X2665069Y11665508D01*
X2669235Y11660835D01*
X2679496Y11651792D01*
X2690876Y11644172D01*
X2697480Y11640921D01*
X2697480Y11689080D01*
X2656179Y11689080D01*
X2652369Y11689842D01*
X2649118Y11691924D01*
X2646883Y11695125D01*
X2646019Y11698935D01*
X2643784Y11770055D01*
X2644495Y11774017D01*
X2646680Y11777421D01*
X2649982Y11779707D01*
X2653944Y11780520D01*
X2697480Y11780520D01*
X2697480Y11828678D01*
X2690876Y11825427D01*
X2679496Y11817807D01*
X2669235Y11808764D01*
X2660497Y11798858D01*
X2657297Y11796420D01*
X2653385Y11795404D01*
X2649423Y11795963D01*
X2645968Y11798046D01*
X2643632Y11801297D01*
X2642717Y11805208D01*
X2642108Y11824462D01*
X2641346Y11831167D01*
X2639110Y11838432D01*
X2635554Y11845137D01*
X2630779Y11850979D01*
X2624937Y11855754D01*
X2618232Y11859310D01*
X2611018Y11861495D01*
X2602992Y11862308D01*
X2400757Y11862308D01*
X2393289Y11861596D01*
X2385517Y11859361D01*
X2259330Y11808917D01*
X2253335Y11805920D01*
X2246833Y11801043D01*
X2093518Y11660428D01*
X2005075Y11571935D01*
X1999945Y11565737D01*
X1996389Y11559032D01*
X1994204Y11551818D01*
X1993392Y11543792D01*
X1993392Y11511737D01*
X1992528Y11507673D01*
X1990140Y11504320D01*
X1933752Y11451691D01*
X1929587Y11446865D01*
X1926894Y11441734D01*
X1925421Y11436146D01*
X1925218Y11430355D01*
X1926285Y11424666D01*
X1928622Y11419382D01*
X1932432Y11414252D01*
X1984806Y11358067D01*
X1986889Y11354816D01*
X1987550Y11350955D01*
X1986737Y11347196D01*
X1984552Y11343944D01*
X1981707Y11341100D01*
X1978406Y11338915D01*
X1974494Y11338102D01*
X1892960Y11338102D01*
X1886661Y11337391D01*
X1881174Y11335512D01*
X1876298Y11332413D01*
X1872183Y11328298D01*
X1869135Y11323421D01*
X1867204Y11317986D01*
X1866493Y11311636D01*
X1866493Y11192764D01*
X1867204Y11186464D01*
X1869135Y11180978D01*
X1872183Y11176101D01*
X1876298Y11171986D01*
X1881174Y11168938D01*
X1886661Y11167008D01*
X1892960Y11166297D01*
X1943150Y11166297D01*
X1947062Y11165535D01*
X1950364Y11163350D01*
X1952548Y11160048D01*
X1953310Y11156137D01*
X1952548Y11152276D01*
X1950364Y11148974D01*
X1865375Y11063935D01*
X1860245Y11057737D01*
X1856689Y11051032D01*
X1854504Y11043818D01*
X1853692Y11035792D01*
X1853692Y10706608D01*
X1854504Y10698581D01*
X1856689Y10691368D01*
X1860245Y10684662D01*
X1865375Y10678464D01*
X1982724Y10561066D01*
X1984705Y10558322D01*
X1985670Y10555071D01*
X1985467Y10551718D01*
X1983130Y10540796D01*
X1982216Y10528300D01*
X1983130Y10515803D01*
X1985772Y10503560D01*
X1990140Y10491774D01*
X1996186Y10480802D01*
X2003704Y10470743D01*
X2012543Y10461904D01*
X2022602Y10454386D01*
X2033574Y10448340D01*
X2045360Y10443972D01*
X2057603Y10441330D01*
X2070100Y10440416D01*
X2082596Y10441330D01*
X2094839Y10443972D01*
X2106625Y10448340D01*
X2117598Y10454386D01*
X2127656Y10461904D01*
X2136495Y10470743D01*
X2144014Y10480802D01*
X2150059Y10491774D01*
X2154428Y10503560D01*
X2156409Y10508284D01*
X2159660Y10511129D01*
X2163826Y10512348D01*
X2168093Y10511688D01*
X2171700Y10509351D01*
X2230475Y10450576D01*
X2232863Y10446867D01*
X2233422Y10442549D01*
X2232101Y10438333D01*
X2229154Y10435082D01*
X2224379Y10431780D01*
X2217420Y10424820D01*
X2211781Y10416794D01*
X2207666Y10407853D01*
X2205126Y10398404D01*
X2204262Y10388600D01*
X2205126Y10378795D01*
X2207666Y10369346D01*
X2211781Y10360406D01*
X2217420Y10352379D01*
X2224379Y10345420D01*
X2232406Y10339781D01*
X2241346Y10335666D01*
X2250795Y10333126D01*
X2260600Y10332262D01*
X2270404Y10333126D01*
X2272690Y10333736D01*
X2276398Y10334040D01*
X2279954Y10332974D01*
X2282901Y10330688D01*
X2284831Y10327538D01*
X2285492Y10323931D01*
X2285492Y10262108D01*
X2286304Y10254081D01*
X2288489Y10246868D01*
X2292045Y10240162D01*
X2296820Y10234320D01*
X2302662Y10229545D01*
X2309368Y10225989D01*
X2316581Y10223804D01*
X2324608Y10222992D01*
X2598470Y10222992D01*
X2606497Y10223804D01*
X2613710Y10225989D01*
X2620416Y10229545D01*
X2626614Y10234676D01*
X2653944Y10261955D01*
X2657246Y10264190D01*
X2661107Y10264952D01*
X2773070Y10264952D01*
X2779420Y10265664D01*
X2784856Y10267543D01*
X2789783Y10270642D01*
X2793847Y10274757D01*
X2796946Y10279634D01*
X2798826Y10285120D01*
X2799537Y10291419D01*
X2799537Y10456316D01*
X2800350Y10460177D01*
X2802534Y10463479D01*
X2805836Y10465714D01*
X2809697Y10466476D01*
X2813608Y10465714D01*
X2816910Y10463479D01*
X2898698Y10381691D01*
X2900934Y10378389D01*
X2901696Y10374477D01*
X2901696Y10300309D01*
X2902508Y10290454D01*
X2904845Y10281259D01*
X2908655Y10272572D01*
X2913837Y10264648D01*
X2920238Y10257688D01*
X2927705Y10251846D01*
X2936036Y10247376D01*
X2945028Y10244277D01*
X2954375Y10242702D01*
X2963824Y10242702D01*
X2972358Y10244124D01*
X2976473Y10243972D01*
X2980232Y10242194D01*
X2982925Y10239044D01*
X2984144Y10235133D01*
X2984804Y10228681D01*
X2986989Y10221468D01*
X2990545Y10214762D01*
X2995320Y10208920D01*
X3001162Y10204145D01*
X3007868Y10200589D01*
X3015081Y10198404D01*
G37*
G36*
X3184753Y11537950D02*
G01*
X3190494Y11538762D01*
X3195878Y11540794D01*
X3200704Y11544046D01*
X3205073Y11548618D01*
X3285642Y11655552D01*
X3288842Y11661038D01*
X3290620Y11666524D01*
X3291128Y11672316D01*
X3290315Y11678056D01*
X3288233Y11683441D01*
X3285032Y11688267D01*
X3280410Y11692636D01*
X3168700Y11776811D01*
X3163265Y11780012D01*
X3157728Y11781790D01*
X3151987Y11782298D01*
X3146247Y11781485D01*
X3139744Y11778996D01*
X3135731Y11778335D01*
X3131769Y11779351D01*
X3128518Y11781790D01*
X3126486Y11785346D01*
X3126028Y11789359D01*
X3126587Y11796268D01*
X3125774Y11802008D01*
X3123742Y11807393D01*
X3120542Y11812219D01*
X3115919Y11816588D01*
X3093262Y11833656D01*
X3061208Y11791086D01*
X3107385Y11756288D01*
X3110026Y11753291D01*
X3111347Y11749582D01*
X3111093Y11745620D01*
X3109366Y11742064D01*
X3073349Y11694210D01*
X3070402Y11691569D01*
X3066643Y11690299D01*
X3062681Y11690502D01*
X3059125Y11692229D01*
X3012948Y11727027D01*
X2980842Y11684457D01*
X3003499Y11667388D01*
X3008934Y11664188D01*
X3014472Y11662410D01*
X3020212Y11661902D01*
X3025952Y11662714D01*
X3032455Y11665204D01*
X3036468Y11665864D01*
X3040430Y11664848D01*
X3043682Y11662410D01*
X3045714Y11658854D01*
X3046171Y11654840D01*
X3045612Y11647932D01*
X3046425Y11642191D01*
X3048457Y11636806D01*
X3051657Y11631980D01*
X3056280Y11627612D01*
X3167989Y11543436D01*
X3173476Y11540185D01*
X3178962Y11538458D01*
G37*
G36*
X2788920Y11640921D02*
G01*
X2795524Y11644172D01*
X2806903Y11651792D01*
X2817164Y11660835D01*
X2826207Y11671096D01*
X2833827Y11682476D01*
X2837078Y11689080D01*
X2788920Y11689080D01*
G37*
G36*
X2914396Y11734546D02*
G01*
X2946501Y11777116D01*
X2902712Y11810085D01*
X2886557Y11788648D01*
X2883357Y11783161D01*
X2881579Y11777675D01*
X2881071Y11771884D01*
X2881884Y11766143D01*
X2883966Y11760758D01*
X2887167Y11755932D01*
X2891790Y11751564D01*
G37*
G36*
X2788920Y11780520D02*
G01*
X2837078Y11780520D01*
X2833827Y11787124D01*
X2826207Y11798503D01*
X2817164Y11808764D01*
X2806903Y11817807D01*
X2795524Y11825427D01*
X2788920Y11828678D01*
G37*
G36*
X2994761Y11841124D02*
G01*
X3026816Y11883745D01*
X3004210Y11900763D01*
X2998724Y11904014D01*
X2993237Y11905742D01*
X2987446Y11906250D01*
X2981706Y11905437D01*
X2976321Y11903405D01*
X2971495Y11900154D01*
X2967126Y11895582D01*
X2950972Y11874144D01*
G37*

%LPD*%
G36*
X2906572Y10991443D02*
G01*
X2902712Y10991951D01*
X2899359Y10993831D01*
X2896920Y10996879D01*
X2895803Y11000587D01*
X2895295Y11005718D01*
X2893110Y11012932D01*
X2889554Y11019637D01*
X2884424Y11025835D01*
X2862834Y11047425D01*
X2860852Y11050320D01*
X2859938Y11053724D01*
X2860243Y11057280D01*
X2862173Y11064595D01*
X2863037Y11074400D01*
X2862173Y11084204D01*
X2859633Y11093653D01*
X2855518Y11102594D01*
X2849880Y11110620D01*
X2842920Y11117580D01*
X2834894Y11123218D01*
X2825953Y11127333D01*
X2816504Y11129873D01*
X2806700Y11130737D01*
X2796895Y11129873D01*
X2787446Y11127333D01*
X2778506Y11123218D01*
X2770479Y11117580D01*
X2768904Y11116005D01*
X2765602Y11113770D01*
X2761691Y11113008D01*
X2648508Y11113008D01*
X2644597Y11113770D01*
X2641295Y11116005D01*
X2639720Y11117580D01*
X2631694Y11123218D01*
X2622753Y11127333D01*
X2619248Y11128298D01*
X2615488Y11130229D01*
X2612847Y11133480D01*
X2611729Y11137595D01*
X2612390Y11141760D01*
X2614676Y11145316D01*
X2693924Y11224564D01*
X2699054Y11230762D01*
X2702610Y11237468D01*
X2704795Y11244681D01*
X2705608Y11252708D01*
X2705608Y11324539D01*
X2706370Y11328400D01*
X2714244Y11339728D01*
X2718257Y11348313D01*
X2720695Y11357305D01*
X2722727Y11361216D01*
X2726182Y11363909D01*
X2730500Y11364874D01*
X2734818Y11363909D01*
X2738272Y11361216D01*
X2740304Y11357305D01*
X2742742Y11348313D01*
X2746756Y11339728D01*
X2752191Y11331905D01*
X2758948Y11325199D01*
X2766720Y11319764D01*
X2775356Y11315700D01*
X2784500Y11313261D01*
X2794000Y11312448D01*
X2803499Y11313261D01*
X2812643Y11315700D01*
X2821279Y11319764D01*
X2829052Y11325199D01*
X2835808Y11331905D01*
X2841244Y11339728D01*
X2845257Y11348313D01*
X2847746Y11357508D01*
X2848610Y11367465D01*
X2848610Y11512143D01*
X2849372Y11516055D01*
X2851607Y11519357D01*
X2854858Y11521541D01*
X2858770Y11522303D01*
X2862630Y11521541D01*
X2865932Y11519357D01*
X2946552Y11438737D01*
X2952800Y11433657D01*
X2959455Y11430050D01*
X2966669Y11427866D01*
X2974695Y11427104D01*
X3186430Y11427104D01*
X3189833Y11426494D01*
X3192881Y11424818D01*
X3195116Y11422227D01*
X3198977Y11415928D01*
X3202990Y11411915D01*
X3207918Y11408816D01*
X3213354Y11406886D01*
X3219704Y11406174D01*
X3321507Y11406174D01*
X3325418Y11405412D01*
X3328670Y11403228D01*
X3339084Y11392814D01*
X3341268Y11389512D01*
X3342081Y11385651D01*
X3341268Y11381740D01*
X3339084Y11378438D01*
X3335782Y11376253D01*
X3331921Y11375491D01*
X3311144Y11375491D01*
X3311144Y11257686D01*
X3376066Y11257686D01*
X3382365Y11258397D01*
X3387953Y11260328D01*
X3391763Y11260886D01*
X3395522Y11259972D01*
X3398672Y11257788D01*
X3400755Y11254536D01*
X3401517Y11250726D01*
X3401517Y11232134D01*
X3400755Y11228324D01*
X3398672Y11225123D01*
X3395522Y11222888D01*
X3391763Y11221974D01*
X3387953Y11222532D01*
X3382365Y11224514D01*
X3376066Y11225225D01*
X3219704Y11225225D01*
X3213354Y11224514D01*
X3207918Y11222583D01*
X3206089Y11221466D01*
X3202432Y11220043D01*
X3198469Y11220145D01*
X3194862Y11221720D01*
X3190494Y11224818D01*
X3181553Y11228933D01*
X3172104Y11231473D01*
X3162300Y11232337D01*
X3152495Y11231473D01*
X3143046Y11228933D01*
X3134106Y11224818D01*
X3126079Y11219180D01*
X3119120Y11212220D01*
X3113481Y11204194D01*
X3109366Y11195253D01*
X3106724Y11184636D01*
X3105962Y11176000D01*
X3106775Y11166297D01*
X3106572Y11162995D01*
X3105302Y11159998D01*
X3103118Y11157559D01*
X3096564Y11152124D01*
X2964434Y11020044D01*
X2961132Y11017859D01*
X2957271Y11017097D01*
X2954375Y11017097D01*
X2945028Y11015522D01*
X2936036Y11012424D01*
X2927705Y11007953D01*
X2920238Y11002111D01*
X2913430Y10994694D01*
X2910281Y10992408D01*
G37*

%LPD*%
D10*
X3454400Y11223091D02*
G01*
X3396995Y11165687D01*
X3297859Y11165687D01*
X3454400Y11332108D02*
G01*
X3320821Y11465687D01*
X3297859Y11465687D01*
X2959100Y10898124D02*
G01*
X2959100Y10960100D01*
X3124200Y11125200D01*
X3149600Y11099800D01*
X3403600Y11099800D01*
X3517900Y11087100D01*
X3517900Y11430000D01*
X3482086Y11465813D01*
X3297936Y11465813D01*
X2285898Y11662613D02*
G01*
X2366111Y11582400D01*
X2451100Y11582400D01*
X2540000Y11493500D01*
X2540000Y11440083D01*
X1947402Y11252205D02*
G01*
X2032127Y11336929D01*
X2032127Y11425961D01*
X2070100Y10782300D02*
G01*
X2540000Y11252200D01*
X2540000Y11440083D01*
X2540000Y10886516D02*
G01*
X2540000Y11125200D01*
X2667000Y11252200D01*
X2667000Y11440083D01*
X2540000Y10886516D02*
G01*
X2603500Y10823016D01*
X2603500Y10744200D01*
X2705100Y10642600D01*
X2762758Y10642600D01*
X2417521Y10375900D02*
G01*
X2557221Y10515600D01*
X2819400Y10515600D01*
X2959100Y10375900D01*
X2959100Y10361650D01*
X2417521Y10375900D02*
G01*
X2273300Y10520121D01*
X2273300Y10744200D01*
X2070100Y11036300D02*
G01*
X2197100Y11163300D01*
X2374900Y11163300D01*
X2413000Y11201400D01*
X2413000Y11440083D01*
X2730500Y11557000D02*
G01*
X2743200Y11569700D01*
X2790393Y11569700D01*
X2803093Y11582400D01*
X2857500Y11582400D01*
X2974200Y11465699D01*
X3297923Y11465699D01*
D11*
X2324100Y11417300D02*
G01*
X2184400Y11417300D01*
D10*
X2294381Y11252200D02*
G01*
X2108200Y11252200D01*
X1892300Y11036300D01*
X1892300Y10706100D01*
X2070100Y10528300D01*
X3594100Y11112500D02*
G01*
X3594100Y10985500D01*
X3365500Y10756900D01*
X3352800Y10769600D01*
X3149600Y10769600D01*
X3086100Y10706100D01*
X3086100Y10361650D01*
X3213100Y10361650D02*
G01*
X3149600Y10298150D01*
X3149600Y10236200D01*
X3022600Y10236200D01*
X3022600Y10604500D01*
X2857500Y10769600D01*
X2857500Y10998200D01*
X2832100Y11023600D01*
X2743200Y11023600D01*
X2667000Y10947400D01*
X2667000Y10886516D01*
X2413000Y10886516D02*
G01*
X2438400Y10911916D01*
X2438400Y11036300D01*
X3297920Y11165700D02*
G01*
X3287618Y11176000D01*
X3162300Y11176000D01*
D11*
X3340100Y10361650D02*
G01*
X3479800Y10501350D01*
X3479800Y10731500D01*
D10*
X3429000Y10909300D02*
G01*
X3429000Y10960100D01*
X3352800Y11036300D01*
X3149600Y11036300D01*
X2603500Y11074400D02*
G01*
X2806700Y11074400D01*
X2032000Y11425936D02*
G01*
X2032000Y11544300D01*
X2120900Y11633200D01*
X2273300Y11772900D01*
X2400300Y11823700D01*
X2603500Y11823700D01*
X2616200Y11417300D01*
X2667000Y11440160D01*
X2713278Y10375900D02*
G01*
X2598978Y10261600D01*
X2324100Y10261600D01*
X2324100Y10411587D01*
X2054986Y10680700D01*
X2032000Y10680700D01*
X1968500Y10744200D01*
X1968500Y10845800D01*
X2070100Y10947400D01*
X2070100Y11036300D01*
X2444241Y10642600D02*
G01*
X2413000Y10673842D01*
X2413000Y10886516D01*
X1955800Y11531600D02*
G01*
X2235200Y11811000D01*
X2258875Y11811000D01*
X2296975Y11849100D01*
X2354125Y11849100D01*
X2379525Y11874500D01*
X2743200Y11874500D01*
X2743200Y11734800D01*
D12*
X2413000Y10959592D02*
G01*
X2413000Y10813440D01*
X2540000Y10959592D02*
G01*
X2540000Y10813440D01*
X2667000Y10959592D02*
G01*
X2667000Y10813440D01*
X2794000Y10959592D02*
G01*
X2794000Y10813440D01*
X2413000Y11513159D02*
G01*
X2413000Y11367008D01*
X2540000Y11513159D02*
G01*
X2540000Y11367008D01*
X2667000Y11513159D02*
G01*
X2667000Y11367008D01*
X2794000Y11513159D02*
G01*
X2794000Y11367008D01*
D13*
X2959100Y10423400D02*
G01*
X2959100Y10299900D01*
X3086100Y10423400D02*
G01*
X3086100Y10299900D01*
X3213100Y10423400D02*
G01*
X3213100Y10299900D01*
X3340100Y10423400D02*
G01*
X3340100Y10299900D01*
X2959100Y10959899D02*
G01*
X2959100Y10836399D01*
X3086100Y10959899D02*
G01*
X3086100Y10836399D01*
X3213100Y10959899D02*
G01*
X3213100Y10836399D01*
X3340100Y10959899D02*
G01*
X3340100Y10836399D01*
G36*
X3100768Y11795566D02*
G01*
X3019521Y11687749D01*
X2906913Y11772605D01*
X2988160Y11880423D01*
G37*
G36*
X3152678Y11756450D02*
G01*
X3071431Y11648633D01*
X3184039Y11563776D01*
X3265286Y11671594D01*
G37*
G36*
X3481400Y11292601D02*
G01*
X3427399Y11292601D01*
X3427399Y11371610D01*
X3481400Y11371610D01*
G37*
D16*
G01*
X3454400Y11223091D03*
G36*
X3376617Y11132101D02*
G01*
X3376617Y11199299D01*
X3219117Y11199299D01*
X3219117Y11132101D01*
G37*
G36*
X3376617Y11432100D02*
G01*
X3376617Y11499298D01*
X3219117Y11499298D01*
X3219117Y11432100D01*
G37*
G36*
X2933915Y11411569D02*
G01*
X3119335Y11411569D01*
X3123788Y11411463D01*
X3128230Y11411150D01*
X3132655Y11410629D01*
X3137049Y11409903D01*
X3141405Y11408968D01*
X3145711Y11407833D01*
X3149960Y11406497D01*
X3154141Y11404963D01*
X3158246Y11403233D01*
X3162266Y11401315D01*
X3166191Y11399210D01*
X3170013Y11396921D01*
X3173724Y11394457D01*
X3177316Y11391823D01*
X3180778Y11389024D01*
X3184108Y11386063D01*
X3187293Y11382951D01*
X3190331Y11379692D01*
X3193211Y11376296D01*
X3195929Y11372768D01*
X3198479Y11369116D01*
X3200854Y11365349D01*
X3203051Y11361473D01*
X3205065Y11357500D01*
X3206889Y11349570D01*
X3376622Y11349570D01*
X3376622Y11283571D01*
X3206889Y11283571D01*
X3205065Y11275636D01*
X3203051Y11271664D01*
X3200854Y11267787D01*
X3198479Y11264021D01*
X3195929Y11260368D01*
X3193211Y11256840D01*
X3190331Y11253444D01*
X3187293Y11250185D01*
X3184108Y11247074D01*
X3180778Y11244112D01*
X3177316Y11241313D01*
X3173724Y11238679D01*
X3170013Y11236215D01*
X3166191Y11233927D01*
X3162266Y11231821D01*
X3158246Y11229903D01*
X3154141Y11228174D01*
X3149960Y11226639D01*
X3145711Y11225303D01*
X3141405Y11224168D01*
X3137049Y11223233D01*
X3132655Y11222507D01*
X3128230Y11221986D01*
X3123788Y11221674D01*
X3119335Y11221567D01*
X2933915Y11221567D01*
X2929463Y11221674D01*
X2925020Y11221986D01*
X2920596Y11222507D01*
X2916201Y11223233D01*
X2911845Y11224168D01*
X2907540Y11225303D01*
X2903291Y11226639D01*
X2899110Y11228174D01*
X2895005Y11229903D01*
X2890984Y11231821D01*
X2887060Y11233927D01*
X2883237Y11236215D01*
X2879526Y11238679D01*
X2875935Y11241313D01*
X2872473Y11244112D01*
X2869143Y11247074D01*
X2865958Y11250185D01*
X2862920Y11253444D01*
X2860040Y11256840D01*
X2857322Y11260368D01*
X2854772Y11264021D01*
X2852397Y11267787D01*
X2850200Y11271664D01*
X2848185Y11275636D01*
X2846362Y11279700D01*
X2844728Y11283843D01*
X2843293Y11288059D01*
X2842056Y11292339D01*
X2841023Y11296672D01*
X2840192Y11301046D01*
X2839567Y11305458D01*
X2839151Y11309893D01*
X2838942Y11314341D01*
X2838942Y11318796D01*
X2839151Y11323243D01*
X2839567Y11327678D01*
X2840192Y11332090D01*
X2841023Y11336464D01*
X2842056Y11340797D01*
X2843293Y11345077D01*
X2844728Y11349294D01*
X2846362Y11353436D01*
X2848185Y11357500D01*
X2850200Y11361473D01*
X2852397Y11365349D01*
X2854772Y11369116D01*
X2857322Y11372768D01*
X2860040Y11376296D01*
X2862920Y11379692D01*
X2865958Y11382951D01*
X2869143Y11386063D01*
X2872473Y11389024D01*
X2875935Y11391823D01*
X2879526Y11394457D01*
X2883237Y11396921D01*
X2887060Y11399210D01*
X2890984Y11401315D01*
X2895005Y11403233D01*
X2899110Y11404963D01*
X2903291Y11406497D01*
X2907540Y11407833D01*
X2911845Y11408968D01*
X2916201Y11409903D01*
X2920596Y11410629D01*
X2925020Y11411150D01*
X2929463Y11411463D01*
X2933915Y11411569D01*
G37*
G36*
X2688501Y10556199D02*
G01*
X2688501Y10729000D01*
X2836999Y10729000D01*
X2836999Y10556199D01*
G37*
G36*
X2518498Y10556199D02*
G01*
X2518498Y10729000D01*
X2370000Y10729000D01*
X2370000Y10556199D01*
G37*
G36*
X2204745Y11668986D02*
G01*
X2285197Y11744007D01*
X2367036Y11656247D01*
X2286586Y11581226D01*
G37*
G36*
X1950974Y11432341D02*
G01*
X2031425Y11507363D01*
X2113264Y11419601D01*
X2032815Y11344579D01*
G37*
D19*
G01*
X1947418Y11252200D03*
G01*
X2294407Y11252200D03*
G36*
X2652900Y10290850D02*
G01*
X2652900Y10460949D01*
X2773652Y10460949D01*
X2773652Y10290850D01*
G37*
G36*
X2477899Y10290850D02*
G01*
X2477899Y10460949D01*
X2357147Y10460949D01*
X2357147Y10290850D01*
G37*
D21*
G01*
X2489200Y11734800D03*
D22*
G01*
X2743200Y11734800D03*
D21*
G01*
X2578100Y10096500D03*
D22*
G01*
X2832100Y10096500D03*
D23*
G01*
X2070100Y11036300D03*
G01*
X2070100Y10782300D03*
G01*
X2070100Y10528300D03*
D14*
G01*
X2273300Y10744200D03*
G01*
X2413000Y11518900D03*
G01*
X2730500Y11557000D03*
G01*
X2171700Y11417300D03*
G01*
X2324100Y11417300D03*
G01*
X2260600Y10388600D03*
G01*
X3594100Y11112500D03*
G01*
X3340100Y10426700D03*
G01*
X3429000Y10909300D03*
G01*
X2400300Y10591800D03*
G01*
X2489200Y10591800D03*
G01*
X2438400Y11036300D03*
G01*
X3162300Y11176000D03*
G01*
X3479800Y10731500D03*
G01*
X3149600Y11036300D03*
G01*
X2603500Y11074400D03*
G01*
X2806700Y11074400D03*
G01*
X2882900Y11442700D03*
G01*
X1955800Y11531600D03*
G01*
X3168370Y11660124D03*
M02*
